<?xml version="1.0" encoding="UTF-8"?>
<svg xmlns="http://www.w3.org/2000/svg" version="1.1" xmlns:xlink="http://www.w3.org/1999/xlink" viewBox="0 0 768 175">
  <defs>
    <style>
      .cls-1 {
        clip-path: url(#clippath-6);
      }

      .cls-2 {
        clip-path: url(#clippath-7);
      }

      .cls-3 {
        clip-path: url(#clippath-17);
      }

      .cls-4 {
        clip-path: url(#clippath-15);
      }

      .cls-5 {
        clip-path: url(#clippath-18);
      }

      .cls-6 {
        clip-path: url(#clippath-4);
      }

      .cls-7 {
        fill: #4e7b7f;
      }

      .cls-8 {
        fill: #b7e6de;
      }

      .cls-9 {
        fill: #436449;
      }

      .cls-10 {
        clip-path: url(#clippath-9);
      }

      .cls-11 {
        clip-path: url(#clippath-10);
      }

      .cls-12 {
        fill: #fff;
      }

      .cls-13 {
        fill: #f8a49f;
      }

      .cls-14 {
        clip-path: url(#clippath-11);
      }

      .cls-15 {
        fill: none;
      }

      .cls-16 {
        fill: #a59627;
      }

      .cls-17 {
        fill: #a9b3b1;
      }

      .cls-18 {
        clip-path: url(#clippath-1);
      }

      .cls-19 {
        fill: #141b22;
      }

      .cls-20 {
        clip-path: url(#clippath-5);
      }

      .cls-21 {
        clip-path: url(#clippath-8);
      }

      .cls-22 {
        fill: #826934;
      }

      .cls-23 {
        fill: #668127;
      }

      .cls-24 {
        fill: #f8a046;
      }

      .cls-25 {
        clip-path: url(#clippath-3);
      }

      .cls-26 {
        clip-path: url(#clippath-12);
      }

      .cls-27 {
        clip-path: url(#clippath-14);
      }

      .cls-28 {
        clip-path: url(#clippath-19);
      }

      .cls-29 {
        fill: #133c26;
      }

      .cls-30 {
        fill: #f68779;
      }

      .cls-31 {
        clip-path: url(#clippath-16);
      }

      .cls-32 {
        clip-path: url(#clippath-2);
      }

      .cls-33 {
        fill: #e0651b;
      }

      .cls-34 {
        clip-path: url(#clippath-13);
      }

      .cls-35 {
        clip-path: url(#clippath);
      }
    </style>
    <clipPath id="clippath">
      <rect class="cls-15" x="2.2" y="0" width="763.6" height="174"/>
    </clipPath>
    <clipPath id="clippath-1">
      <rect class="cls-15" x="2.2" y="126.7" width="88.5" height="41.3"/>
    </clipPath>
    <clipPath id="clippath-2">
      <rect class="cls-15" x="2.2" y="104" width="88.5" height="25.3"/>
    </clipPath>
    <clipPath id="clippath-3">
      <rect class="cls-15" x="704.5" y="127.3" width="61.3" height="40.4"/>
    </clipPath>
    <clipPath id="clippath-4">
      <rect class="cls-15" x="704.5" y="104.5" width="61.3" height="23.9"/>
    </clipPath>
    <clipPath id="clippath-5">
      <rect class="cls-15" x="706.3" y="123.4" width="59.5" height="1.2"/>
    </clipPath>
    <clipPath id="clippath-6">
      <rect class="cls-15" x="708.5" y="119.1" width="57.3" height="1.7"/>
    </clipPath>
    <clipPath id="clippath-7">
      <rect class="cls-15" x="711.2" y="114.8" width="54.6" height="1.4"/>
    </clipPath>
    <clipPath id="clippath-8">
      <rect class="cls-15" x="714.3" y="109.5" width="51.6" height="2.3"/>
    </clipPath>
    <clipPath id="clippath-9">
      <rect class="cls-15" x="715.9" y="106.4" width="49.9" height="1.5"/>
    </clipPath>
    <clipPath id="clippath-10">
      <rect class="cls-15" x="566.7" y="166.7" width="68" height="3.4"/>
    </clipPath>
    <clipPath id="clippath-11">
      <rect class="cls-15" x="63.4" y="167.2" width="702.5" height="2.7"/>
    </clipPath>
    <clipPath id="clippath-12">
      <rect class="cls-15" x="673.1" y="72.9" width="5" height="97"/>
    </clipPath>
    <clipPath id="clippath-13">
      <rect class="cls-15" x="165.9" y="53.9" width="6.1" height="116.1"/>
    </clipPath>
    <clipPath id="clippath-14">
      <rect class="cls-15" x="196.9" y="143" width=".9" height="26.9"/>
    </clipPath>
    <clipPath id="clippath-15">
      <rect class="cls-15" x="431.6" y="143" width=".9" height="26.9"/>
    </clipPath>
    <clipPath id="clippath-16">
      <rect class="cls-15" x="264.1" y="133.3" width="3.3" height="36.6"/>
    </clipPath>
    <clipPath id="clippath-17">
      <rect class="cls-15" x="149.6" y="133.3" width="3.2" height="36.6"/>
    </clipPath>
    <clipPath id="clippath-18">
      <rect class="cls-15" x="700.7" y="133.3" width="3.2" height="36.6"/>
    </clipPath>
    <clipPath id="clippath-19">
      <rect class="cls-15" x="582.7" y="143" width=".9" height="26.9"/>
    </clipPath>
  </defs>
  <!-- Generator: Adobe Illustrator 28.6.0, SVG Export Plug-In . SVG Version: 1.2.0 Build 709)  -->
  <g>
    <g id="Layer_1">
      <g class="cls-35">
        <path class="cls-12" d="M2.2,0h763.6v174H2.2V0Z"/>
      </g>
      <path class="cls-29" d="M72.4,104.9h-3.4s-.6-11.5-.6-11.5l4.4-.6-.5,12.1"/>
      <g class="cls-18">
        <path class="cls-29" d="M90,167.7H2.2v-40.2l87.8.9v39.3"/>
      </g>
      <g class="cls-32">
        <path class="cls-16" d="M78.3,104.5H15.5l-13.3,23,87.8.9-11.7-23.8"/>
      </g>
      <path class="cls-12" d="M71.9,148.3h-3.1v-7.1h3.1v7.1"/>
      <path class="cls-12" d="M77.1,148.3h-3.2v-7.1h3.2v7.1"/>
      <path class="cls-12" d="M82.3,148.3h-3.2v-7.1h3.2v7.1"/>
      <path class="cls-12" d="M71.9,157.6h-3.1v-7.1h3.1v7.1"/>
      <path class="cls-12" d="M77.1,157.6h-3.2v-7.1h3.2v7.1"/>
      <path class="cls-12" d="M82.3,157.6h-3.2v-7.1h3.2v7.1"/>
      <path class="cls-29" d="M87.5,123.4H4.5s-.6,1.1-.6,1.1h84.1s-.5-1.1-.5-1.1"/>
      <path class="cls-29" d="M85.5,119.1l-78.8.6-.6,1.1,79.9-.6-.5-1"/>
      <path class="cls-29" d="M83.4,114.9H9.4c0,.1-.6,1.2-.6,1.2h75.1c0-.1-.5-1.2-.5-1.2"/>
      <path class="cls-29" d="M81.3,110.7l-68.8-1.1-.6,1,69.9,1.1-.5-1.1"/>
      <path class="cls-29" d="M79.3,106.5l-65.1.4-.6,1.1,66.2-.4-.5-1"/>
      <g class="cls-25">
        <path class="cls-29" d="M792.4,167.7h-87.8v-40.2l87.8.9v39.3"/>
      </g>
      <g class="cls-6">
        <path class="cls-16" d="M780.7,104.5h-62.8l-13.3,23,87.8.9-11.7-23.8"/>
      </g>
      <path class="cls-12" d="M715.4,148.3h-3.2v-7.1h3.2v7.1"/>
      <path class="cls-12" d="M720.6,148.3h-3.1v-7.1h3.1v7.1"/>
      <path class="cls-12" d="M725.9,148.3h-3.2v-7.1h3.2v7.1"/>
      <path class="cls-12" d="M715.4,157.6h-3.2v-7.1h3.2v7.1"/>
      <path class="cls-12" d="M720.6,157.6h-3.1v-7.1h3.1v7.1"/>
      <path class="cls-12" d="M725.9,157.6h-3.2v-7.1h3.2v7.1"/>
      <path class="cls-19" d="M758.6,167.7h-9.5l-1-14.6h11.5c0-.1-1.1,14.6-1.1,14.6"/>
      <g class="cls-20">
        <path class="cls-29" d="M790,123.4h-83s-.6,1.1-.6,1.1h84.1s-.5-1.1-.5-1.1"/>
      </g>
      <g class="cls-1">
        <path class="cls-29" d="M787.9,119.1l-78.8.6-.6,1.1,79.9-.6-.5-1"/>
      </g>
      <g class="cls-2">
        <path class="cls-29" d="M785.8,114.9h-74c0,.1-.6,1.2-.6,1.2h75.1c0-.1-.5-1.2-.5-1.2"/>
      </g>
      <g class="cls-21">
        <path class="cls-29" d="M783.8,110.7l-68.8-1.1-.6,1,69.9,1.1-.5-1.1"/>
      </g>
      <g class="cls-10">
        <path class="cls-29" d="M781.7,106.5l-65.1.4-.6,1.1,66.2-.4-.5-1"/>
      </g>
      <path class="cls-24" d="M623.6,63.6l2.3,104.2h39.5V63.8s-19.7-20.6-19.7-20.6l-22.1,20.4"/>
      <path class="cls-33" d="M665.4,63.7v104.1h39.4l2.3-104.4-41.7.3"/>
      <path class="cls-12" d="M655,72.8c-.4-8.1-4.4-14.6-9.4-14.6s-9,6.4-9.4,14.6h18.7"/>
      <path class="cls-19" d="M638.7,70.9h6.5l-5.9-3.8c-.3,1.2-.5,2.5-.6,3.8"/>
      <path class="cls-19" d="M651.9,67.1l-5.9,3.7h6.4c0-1.3-.3-2.6-.6-3.7"/>
      <path class="cls-19" d="M644.5,60.4c-1.9.5-3.6,2.4-4.6,5l5.4,4.9-.8-10"/>
      <path class="cls-19" d="M651.4,65.6c-1-2.6-2.5-4.5-4.4-5.1l-1,9.9,5.3-4.8"/>
      <path class="cls-29" d="M652.4,167.8h-13.7l-1.1-27.6,15.8-1.2-1.1,28.9"/>
      <path class="cls-23" d="M648.8,147.3c0,1.8-1.5,3.3-3.3,3.3s-3.3-1.5-3.3-3.3,1.5-3.3,3.3-3.3,3.3,1.5,3.3,3.3"/>
      <path class="cls-23" d="M651.5,157.5c0,.6-.5,1.1-1.1,1.1s-1.1-.5-1.1-1.1.5-1.1,1.1-1.1,1.1.5,1.1,1.1"/>
      <path class="cls-19" d="M683.9,89.2h-2.2v-11h2.2v11"/>
      <path class="cls-19" d="M687.3,89.2h-2.2v-11h2.2v11"/>
      <path class="cls-19" d="M690.8,89.2h-2.2v-11h2.2v11"/>
      <path class="cls-19" d="M672.9,89.2h-2.2v-7h2.2v7"/>
      <path class="cls-19" d="M676.3,89.2h-2.2v-7h2.2v7"/>
      <path class="cls-19" d="M670.7,78.2v2.9h5.6v-2.9h-5.6"/>
      <path class="cls-24" d="M698.4,89.2h-2.2v-7h2.2v7"/>
      <path class="cls-24" d="M701.8,89.2h-2.2v-7h2.2v7"/>
      <path class="cls-24" d="M696.3,78.2v2.9h5.6v-2.9h-5.6"/>
      <path class="cls-19" d="M698.4,149.5h-2.2v-7h2.2v7"/>
      <path class="cls-19" d="M701.8,149.5h-2.2v-7h2.2v7"/>
      <path class="cls-19" d="M696.3,138.5v2.9h5.6v-2.9h-5.6"/>
      <path class="cls-19" d="M698.4,129.4h-2.2v-7h2.2v7"/>
      <path class="cls-19" d="M701.8,129.4h-2.2v-7h2.2v7"/>
      <path class="cls-19" d="M696.3,118.4v2.9h5.6v-2.9h-5.6"/>
      <path class="cls-19" d="M672.9,129.4h-2.2v-7h2.2v7"/>
      <path class="cls-19" d="M676.3,129.4h-2.2v-7h2.2v7"/>
      <path class="cls-19" d="M670.7,118.4v2.9h5.6v-2.9h-5.6"/>
      <path class="cls-19" d="M683.9,149.5h-2.2v-11h2.2v11"/>
      <path class="cls-19" d="M687.3,149.5h-2.2v-11h2.2v11"/>
      <path class="cls-19" d="M690.8,149.5h-2.2v-11h2.2v11"/>
      <path class="cls-29" d="M633.1,50.3l-.2-10.9,4.8-.4v8.1c-.1,0-4.5,3.2-4.5,3.2"/>
      <path class="cls-23" d="M711.5,64.1l-25.6-28.1h-12.3l26.6,28.1h11.4"/>
      <path class="cls-23" d="M662.4,36l22.2,28.2h14.1s-26.6-28.2-26.6-28.2h-9.7"/>
      <path class="cls-23" d="M645.6,36l18.7,28.2h19s-22.2-28.2-22.2-28.2h-15.4"/>
      <path class="cls-29" d="M661.1,36l22.2,28.2h1.3s-22.2-28.2-22.2-28.2h-1.3"/>
      <path class="cls-29" d="M673.6,36h-1.5l26.6,28.1h1.5l-26.6-28.1"/>
      <path class="cls-29" d="M626.9,64.1l18.8-21v-7.2s-25.9,28.2-25.9,28.2h7.1"/>
      <path class="cls-29" d="M671.3,64.1h-7.1s-18.7-21.1-18.7-21.1v-7.1c.1,0,25.8,28.2,25.8,28.2"/>
      <path class="cls-29" d="M619.4,64.1h7.1s19.2-21.1,19.2-21.1v-7.1c-.1,0-26.3,28.2-26.3,28.2"/>
      <path class="cls-22" d="M436.5,29.8c-.3,0-.6-.2-.7-.6l-4.9-28.3c0-.4.2-.7.5-.8.4,0,.7.2.8.5l4.9,28.3c0,.4-.2.7-.5.8,0,0,0,0-.1,0"/>
      <path class="cls-7" d="M433,2l-15.6,3.3,10,1.2-7.6,4.8,14.5-2.1-1.3-7.2"/>
      <path class="cls-17" d="M490.7,167.8l2.8-131.8-31.5-17.7-33.4,18.7,2.9,130.7h59.3"/>
      <path class="cls-7" d="M425.3,38.9l36.7-20.6v-4.4l-39.1,21.3,2.4,3.6"/>
      <path class="cls-7" d="M462,14v4.4l33.2,19,2.3-3.8-35.5-19.7"/>
      <path class="cls-19" d="M450.2,40.2s.9-12.8,10.9-12.2,10.7,12.1,10.7,12.1h-21.6"/>
      <path class="cls-12" d="M464.7,133.5h-7.3v-5.4h7.3v5.4"/>
      <path class="cls-12" d="M460.1,126.3h-2.7s-.2-4.7.6-6.4c.7-1.7,2.1-1.9,2.1-1.9v8.4"/>
      <path class="cls-12" d="M462,126.3h2.7s.2-5.1-.5-6.8c-.7-1.7-2.2-1.5-2.2-1.5v8.4"/>
      <path class="cls-12" d="M449.7,65.3h-7.3v-5.4h7.3v5.4"/>
      <path class="cls-12" d="M445.1,58.1h-2.7s-.2-4.7.6-6.4c.7-1.7,2.1-1.9,2.1-1.9v8.4"/>
      <path class="cls-12" d="M447,58.1h2.7s.2-5.1-.5-6.8c-.7-1.7-2.2-1.5-2.2-1.5v8.4"/>
      <path class="cls-12" d="M479.7,65.3h-7.3v-5.4h7.3v5.4"/>
      <path class="cls-12" d="M475.1,58.1h-2.7s-.2-4.7.6-6.4c.7-1.7,2.1-1.9,2.1-1.9v8.4"/>
      <path class="cls-12" d="M477,58.1h2.7s.2-5.1-.5-6.8c-.7-1.7-2.2-1.5-2.2-1.5v8.4"/>
      <path class="cls-19" d="M453.1,154.1h-7.8v-4.9h7.8v4.9"/>
      <path class="cls-19" d="M448.2,147.1h-2.9v-5.9h2.9v5.9"/>
      <path class="cls-19" d="M453.1,147.1h-2.9v-5.9h2.9v5.9"/>
      <path class="cls-19" d="M450,110.2h-7.8v-4.9h7.8v4.9"/>
      <path class="cls-19" d="M445.2,103.2h-2.9v-5.9h2.9v5.9"/>
      <path class="cls-19" d="M450,103.2h-2.9v-5.9h2.9v5.9"/>
      <path class="cls-19" d="M479.8,110.2h-7.8v-4.9h7.8v4.9"/>
      <path class="cls-19" d="M475,103.2h-2.9v-5.9h2.9v5.9"/>
      <path class="cls-19" d="M479.8,103.2h-2.9v-5.9h2.9v5.9"/>
      <path class="cls-19" d="M472.3,167.8h-7.8l-.5-15.4h9.1l-.7,15.4"/>
      <path class="cls-30" d="M466.1,72.1l-.9,12.2,4.1-.2-3.3-12"/>
      <path class="cls-22" d="M462,73.8c-12.7,0-23.7-2.7-23.8-2.7-.3,0-.5-.4-.4-.7,0-.3.4-.5.7-.4.3,0,27.6,6.7,45.9-1.2.3-.1.6,0,.7.3.1.3,0,.6-.3.7-6.9,3-15.2,3.9-22.7,3.9"/>
      <path class="cls-12" d="M448.8,71l-.8,12,5.4-.9.6-4.2h2.7v6.1h5.7l-.3-11.8-13.4-1.1"/>
      <path class="cls-9" d="M477.8,70.4l4,17.1,6-2.1-4.9-16.6-5.1,1.6"/>
      <path class="cls-13" d="M466.1,72.1l2,14.7,8.3-1.7-3.2-13.7-7.1.7"/>
      <path class="cls-23" d="M445.5,71v9.6s-2,.9-2,.9l2-10.5"/>
      <path class="cls-16" d="M440.5,69.9l-1.9,14.3h5.7l1.2-13.3-5-1"/>
      <path class="cls-33" d="M341.9,167.8h-73.3v-63.3h73.3v63.3"/>
      <path class="cls-29" d="M311.9,167.8h-13.3l.4-34.9h12.2l.7,34.9"/>
      <path class="cls-24" d="M313.8,130.2h-17l.3,2.7h16.5l.3-2.7"/>
      <path class="cls-19" d="M308.4,141.4c0,1.7-1.4,3.1-3.2,3.1s-3.2-1.4-3.2-3.1,1.4-3.1,3.2-3.1,3.2,1.4,3.2,3.1"/>
      <path class="cls-24" d="M333.6,155.6h-9.5v-9.5h9.5v9.5"/>
      <path class="cls-19" d="M328.3,150.1h-2.7v-2.5h2.7v2.5"/>
      <path class="cls-19" d="M332.1,150.1h-2.7v-2.5h2.7v2.5"/>
      <path class="cls-19" d="M328.3,154h-2.7v-2.5h2.7v2.5"/>
      <path class="cls-19" d="M332.1,154h-2.7v-2.5h2.7v2.5"/>
      <path class="cls-24" d="M286.4,155.6h-9.5v-9.5h9.5v9.5"/>
      <path class="cls-19" d="M281.2,150.1h-2.7v-2.5h2.7v2.5"/>
      <path class="cls-19" d="M284.9,150.1h-2.7v-2.5h2.7v2.5"/>
      <path class="cls-19" d="M281.2,154h-2.7v-2.5h2.7v2.5"/>
      <path class="cls-19" d="M284.9,154h-2.7v-2.5h2.7v2.5"/>
      <path class="cls-24" d="M286.4,123.8h-9.5v-9.5h9.5v9.5"/>
      <path class="cls-19" d="M281.2,118.4h-2.7v-2.5h2.7v2.5"/>
      <path class="cls-19" d="M284.9,118.4h-2.7v-2.5h2.7v2.5"/>
      <path class="cls-19" d="M281.2,122.3h-2.7v-2.5h2.7v2.5"/>
      <path class="cls-19" d="M284.9,122.3h-2.7v-2.5h2.7v2.5"/>
      <path class="cls-24" d="M333.6,123.8h-9.5v-9.5h9.5v9.5"/>
      <path class="cls-19" d="M328.3,118.4h-2.7v-2.5h2.7v2.5"/>
      <path class="cls-19" d="M332.1,118.4h-2.7v-2.5h2.7v2.5"/>
      <path class="cls-19" d="M328.3,122.3h-2.7v-2.5h2.7v2.5"/>
      <path class="cls-19" d="M332.1,122.3h-2.7v-2.5h2.7v2.5"/>
      <path class="cls-19" d="M309.5,111.8c-2.4-1.5-4.2.8-4.3,2-.2-1.1-2.3-3.7-4.4-1.7-3.4,3.2,4.4,7.8,4.4,7.8,0,0,8.3-5.7,4.3-8.1"/>
      <path class="cls-19" d="M268.6,104.5l7.8-22.1h54.3l11.3,22.1h-73.3"/>
      <path class="cls-19" d="M284.4,82.5h-5.3v-6.1h5.3v6.1"/>
      <path class="cls-19" d="M285.8,77.4h-8.1c-.6,0-1.1-.5-1.1-1.1s.5-1.1,1.1-1.1h8.1c.6,0,1.1.5,1.1,1.1s-.5,1.1-1.1,1.1"/>
      <path class="cls-19" d="M90,86.6l89.4-.4,13.9-20.8h-88.9l-14.4,21.2"/>
      <path class="cls-7" d="M95.8,87.2l-.4-.2,13.4-22.1.4.2-13.4,22.1"/>
      <path class="cls-7" d="M100.9,87.1l-.4-.2,12.9-22.1.4.2-12.9,22.1"/>
      <path class="cls-7" d="M105.7,86.9l-.4-.2,12.3-21.8.4.2-12.3,21.8"/>
      <path class="cls-7" d="M151.5,87.2l-.4-.2,11.6-22.1.4.2-11.6,22.1"/>
      <path class="cls-7" d="M162.7,86.9l-.4-.2,10.9-21.8.4.2-10.9,21.8"/>
      <path class="cls-7" d="M111.3,87.9l-.4-.2,11.4-22.8.4.2-11.4,22.8"/>
      <path class="cls-7" d="M115.7,86.9l-.4-.2,11.6-22.1.4.2-11.6,22.1"/>
      <path class="cls-7" d="M121.7,87.9l-.4-.2,9.5-22.6.4.2-9.5,22.6"/>
      <path class="cls-7" d="M125.4,88.4l-.4-.2,11.2-23.1.4.2-11.2,23.1"/>
      <path class="cls-7" d="M130.4,87.9l-.4-.2,12.4-22.8.4.2-12.4,22.8"/>
      <path class="cls-7" d="M135.6,87.9l-.4-.2,13.6-23.4.4.2-13.7,23.4"/>
      <path class="cls-7" d="M142.3,87.9l-.4-.2,11.4-22.8.4.2-11.4,22.8"/>
      <path class="cls-7" d="M174.4,87.9l-.4-.2,11.4-22.8.4.2-11.4,22.8"/>
      <path class="cls-7" d="M146.8,86.9l-.4-.2,11.6-22.1.4.2-11.6,22.1"/>
      <path class="cls-7" d="M156.5,88.4l-.4-.2,11.2-23.1.4.2-11.2,23.1"/>
      <path class="cls-7" d="M166.7,87.9l-.4-.2,13.8-23.5.4.2-13.8,23.5"/>
      <path class="cls-7" d="M90,86.6v81.2h89.4v-81.6l-89.4.4"/>
      <path class="cls-17" d="M193.3,65.4l-13.9,20.8v81.6h26.9l.4-82.5-13.4-19.9"/>
      <path class="cls-17" d="M121.7,128.9h-19.4v-7.5h19.4v7.5"/>
      <path class="cls-17" d="M170.9,104.7h-19.4v-7.5h19.4v7.5"/>
      <path class="cls-17" d="M109.8,104.7h-7.5v-7.5h7.5v7.5"/>
      <path class="cls-17" d="M138.4,104.7h-7.5v-7.5h7.5v7.5"/>
      <path class="cls-17" d="M138.4,128.9h-7.5v-7.5h7.5v7.5"/>
      <path class="cls-7" d="M196.8,128.9h-7.5v-7.5h7.5v7.5"/>
      <path class="cls-17" d="M109.8,153h-7.5v-7.5h7.5v7.5"/>
      <path class="cls-17" d="M159,153h-7.5v-7.5h7.5v7.5"/>
      <path class="cls-17" d="M170.9,153h-7.5v-7.5h7.5v7.5"/>
      <path class="cls-19" d="M141.7,167.8h-14.1v-2.7h14.1v2.7"/>
      <path class="cls-19" d="M129.8,167.8l-1.2-23.5,12-.8-.6,24-10.3.3"/>
      <path class="cls-7" d="M110.7,65.4h-3v-6.6h3v6.6"/>
      <path class="cls-19" d="M111.8,60.2h-5.2v-2.3h5.2v2.3"/>
      <path class="cls-7" d="M105.9,105.8v-9.1s.5,0,.5,0v9.1s-.5,0-.5,0"/>
      <path class="cls-7" d="M102.2,101.2v-.5s8.5,0,8.5,0v.5s-8.5,0-8.5,0"/>
      <path class="cls-7" d="M134.2,105.8v-9.1s.5,0,.5,0v9.1s-.5,0-.5,0"/>
      <path class="cls-7" d="M130.5,101.2v-.5s8.5,0,8.5,0v.5s-8.5,0-8.5,0"/>
      <path class="cls-7" d="M134.2,129.7v-9.1s.5,0,.5,0v9.1s-.5,0-.5,0"/>
      <path class="cls-7" d="M130.5,125.1v-.5s8.5,0,8.5,0v.5s-8.5,0-8.5,0"/>
      <path class="cls-17" d="M192.7,129.7v-9.1s.5,0,.5,0v9.1s-.5,0-.5,0"/>
      <path class="cls-17" d="M189,125.1v-.5s8.5,0,8.5,0v.5s-8.5,0-8.5,0"/>
      <path class="cls-7" d="M154.9,154.1v-9.1s.5,0,.5,0v9.1s-.5,0-.5,0"/>
      <path class="cls-7" d="M151.2,149.5v-.5s8.5,0,8.5,0v.5s-8.5,0-8.5,0"/>
      <path class="cls-7" d="M166.5,154.1v-9.1s.5,0,.5,0v9.1s-.5,0-.5,0"/>
      <path class="cls-7" d="M162.8,149.5v-.5s8.5,0,8.5,0v.5s-8.5,0-8.5,0"/>
      <path class="cls-7" d="M105.8,154.1v-9.1s.5,0,.5,0v9.1s-.5,0-.5,0"/>
      <path class="cls-7" d="M102.1,149.5v-.5s8.5,0,8.5,0v.5s-8.5,0-8.5,0"/>
      <path class="cls-7" d="M107.5,129.1h-.5v-7.9h.5v7.9"/>
      <path class="cls-7" d="M117.1,129.1h-.5v-7.9h.5v7.9"/>
      <path class="cls-7" d="M112.3,129.1h-.5v-7.9h.5v7.9"/>
      <path class="cls-7" d="M156.6,105h-.5v-7.9h.5v7.9"/>
      <path class="cls-7" d="M166.2,105h-.5v-7.9h.5v7.9"/>
      <path class="cls-7" d="M161.4,105h-.5v-7.9h.5v7.9"/>
      <path class="cls-8" d="M192.9,65.3h-80.2v-2.9h80.2v2.9"/>
      <path class="cls-7" d="M119.3,65.4h-3v-6.6h3v6.6"/>
      <path class="cls-19" d="M120.4,60.2h-5.2v-2.3h5.2v2.3"/>
      <path class="cls-23" d="M386.6,81.1v86.7h45v-87.1l-45,.4"/>
      <path class="cls-16" d="M342,81.1v86.7h44.7v-87.1l-22.3-29.7-22.4,30.2"/>
      <path class="cls-33" d="M431.9,80.4s0,0,0-.1c-.6-.9-1.1-1.5-1.5-1.8-5.4-6.5-22.5-27-22.5-27l-43.5-.6,19.7,28.5s0,0,0,0c.9,1.4,2.5,4.5,6.8,4.3,2.5,0,3.3-.9,3.2-2.9.2,1.6,1.8,3.2,5.3,3.1,2.4,0,4.4-1.3,4.1-3,0,0,0,0,0,0,.2,1.6,2.7,3.1,5.2,3,3.3-.1,4.6-1.3,4.2-3.1.2,1.6,3,2.9,5.5,2.9s3.8-1.3,3.9-2.9c.2,1.6,2.8,2.9,5.3,2.9s5.2-2.1,4.2-3.4"/>
      <path class="cls-29" d="M363.6,139.1c-8.2.4-6.2,21.5-6.5,28.7h14.4c-.6-9.6,0-29.1-7.9-28.7"/>
      <path class="cls-29" d="M364.4,79.5s5.7-4.8,3.9-6.9c-1.2-1.3-3.5-.5-3.9,1,0-.9-2.1-3-3.7-1.2-2.4,2.7,3.8,7.1,3.8,7.1"/>
      <path class="cls-12" d="M363.7,96h-2.2v-2.8h2.2v2.8"/>
      <path class="cls-12" d="M367.2,96h-2.2v-2.8h2.2v2.8"/>
      <path class="cls-12" d="M363.7,100.7h-2.2v-2.8h2.2v2.8"/>
      <path class="cls-12" d="M367.2,100.7h-2.2v-2.8h2.2v2.8"/>
      <path class="cls-12" d="M363.7,113.7h-2.2v-2.8h2.2v2.8"/>
      <path class="cls-12" d="M367.2,113.7h-2.2v-2.8h2.2v2.8"/>
      <path class="cls-12" d="M363.7,118.4h-2.2v-2.8h2.2v2.8"/>
      <path class="cls-12" d="M367.2,118.4h-2.2v-2.8h2.2v2.8"/>
      <path class="cls-16" d="M393.7,113.7h-2.2v-2.8h2.2v2.8"/>
      <path class="cls-16" d="M397.1,113.7h-2.2v-2.8h2.2v2.8"/>
      <path class="cls-16" d="M393.7,118.4h-2.2v-2.8h2.2v2.8"/>
      <path class="cls-16" d="M397.1,118.4h-2.2v-2.8h2.2v2.8"/>
      <path class="cls-16" d="M423.4,96h-2.2v-2.8h2.2v2.8"/>
      <path class="cls-16" d="M426.9,96h-2.2v-2.8h2.2v2.8"/>
      <path class="cls-16" d="M423.4,100.7h-2.2v-2.8h2.2v2.8"/>
      <path class="cls-16" d="M426.9,100.7h-2.2v-2.8h2.2v2.8"/>
      <path class="cls-16" d="M413.9,155.2h-8.1v-10.2h8.1v10.2"/>
      <path class="cls-12" d="M409.3,149.2h-2.2v-2.8h2.2v2.8"/>
      <path class="cls-12" d="M412.8,149.2h-2.2v-2.8h2.2v2.8"/>
      <path class="cls-12" d="M409.3,153.9h-2.2v-2.8h2.2v2.8"/>
      <path class="cls-12" d="M412.8,153.9h-2.2v-2.8h2.2v2.8"/>
      <path class="cls-16" d="M423.4,131.5h-2.2v-2.8h2.2v2.8"/>
      <path class="cls-16" d="M426.9,131.5h-2.2v-2.8h2.2v2.8"/>
      <path class="cls-16" d="M423.4,136.1h-2.2v-2.8h2.2v2.8"/>
      <path class="cls-16" d="M426.9,136.1h-2.2v-2.8h2.2v2.8"/>
      <path class="cls-16" d="M413.2,119.8h-8.1v-10.2h8.1v10.2"/>
      <path class="cls-12" d="M408.5,113.7h-2.2v-2.8h2.2v2.8"/>
      <path class="cls-12" d="M412,113.7h-2.2v-2.8h2.2v2.8"/>
      <path class="cls-12" d="M408.5,118.4h-2.2v-2.8h2.2v2.8"/>
      <path class="cls-12" d="M412,118.4h-2.2v-2.8h2.2v2.8"/>
      <path class="cls-24" d="M381.3,57.4c-2.1,0-4-.9-4.1-1-.2,0-.3-.3-.2-.5s.3-.3.5-.2c0,0,4.5,2.2,7-.3.2-.2.4-.2.6,0,.2.2.2.4,0,.6-1.1,1.1-2.5,1.5-3.8,1.5"/>
      <path class="cls-24" d="M390.9,57.2c-2.1,0-3.7-.9-3.8-1-.2-.1-.2-.4-.1-.5.1-.2.4-.2.6-.1.1,0,3.3,2,6.7-.1.2-.1.4,0,.5.1s0,.4-.1.5c-1.4.8-2.7,1.1-3.8,1.1"/>
      <path class="cls-24" d="M399.8,57c-1.8,0-3.3-.9-3.3-.9-.2-.1-.2-.4-.1-.6.1-.2.4-.2.6-.1.1,0,2.8,1.8,5.4,0,.2-.1.4,0,.6,0,.1.2,0,.4,0,.6-1,.7-2.1,1-3,1"/>
      <path class="cls-24" d="M408.3,56.8c-2,0-3.2-1-3.3-1-.2-.1-.2-.4,0-.6.1-.2.4-.2.6,0,0,0,1.8,1.4,4.5.6.2,0,.4,0,.5.3,0,.2,0,.4-.3.5-.7.2-1.4.3-2,.3"/>
      <path class="cls-24" d="M370.8,57.5c-.5,0-.8,0-.8,0-.2,0-.4-.2-.3-.4,0-.2.2-.4.4-.3,0,0,2.7.3,4.3-1.1.2-.1.4-.1.6,0,.1.2.1.4,0,.6-1.3,1.2-3.1,1.4-4.1,1.4"/>
      <path class="cls-24" d="M386.9,64.2c-2.1,0-4-.9-4.1-1-.2,0-.3-.3-.2-.5,0-.2.3-.3.5-.2,0,0,4.5,2.2,7-.3.2-.2.4-.2.6,0,.2.2.2.4,0,.6-1.1,1.1-2.5,1.5-3.8,1.5"/>
      <path class="cls-24" d="M396.4,64c-2.1,0-3.7-.9-3.8-1-.2-.1-.2-.4-.1-.6s.4-.2.5-.1c.1,0,3.3,2,6.8-.1.2-.1.4,0,.5.1.1.2,0,.4-.1.5-1.4.8-2.7,1.1-3.8,1.1"/>
      <path class="cls-24" d="M405.3,63.8c-1.8,0-3.3-.9-3.3-.9-.2-.1-.2-.4-.1-.6.1-.2.4-.2.6-.1.1,0,2.8,1.8,5.4,0,.2-.1.4,0,.6,0,.1.2,0,.4,0,.6-1,.7-2.1,1-3,1"/>
      <path class="cls-24" d="M413.8,63.6c-2,0-3.2-1-3.3-1-.2-.1-.2-.4,0-.6.1-.2.4-.2.6,0,0,0,1.8,1.4,4.5.6.2,0,.4,0,.5.3,0,.2,0,.4-.3.5-.7.2-1.4.3-2,.3"/>
      <path class="cls-24" d="M376.4,64.3c-.5,0-.8,0-.8,0-.2,0-.4-.2-.3-.4,0-.2.2-.4.4-.3,0,0,2.7.3,4.3-1.1.2-.1.4-.1.6,0,.2.2.1.4,0,.6-1.3,1.2-3.1,1.4-4.1,1.4"/>
      <path class="cls-24" d="M392.4,70.9c-2.1,0-4-.9-4.1-1-.2,0-.3-.3-.2-.5,0-.2.3-.3.5-.2,0,0,4.5,2.2,7-.3.2-.2.4-.2.6,0,.2.2.2.4,0,.6-1.1,1.1-2.5,1.5-3.8,1.5"/>
      <path class="cls-24" d="M401.9,70.8c-2.1,0-3.7-.9-3.8-1-.2-.1-.2-.4-.1-.6.1-.2.4-.2.6-.1.1,0,3.3,2,6.7-.1.2-.1.4,0,.5.1.1.2,0,.4-.1.5-1.4.8-2.7,1.1-3.8,1.1"/>
      <path class="cls-24" d="M410.8,70.5c-1.8,0-3.3-.9-3.3-.9-.2-.1-.2-.4-.1-.6.1-.2.4-.2.6-.1.1,0,2.8,1.8,5.4,0,.2-.1.4,0,.6,0,.1.2,0,.4,0,.6-1,.7-2.1,1-3,1"/>
      <path class="cls-24" d="M419.3,70.4c-2,0-3.2-1-3.3-1-.2-.1-.2-.4,0-.6.1-.2.4-.2.6,0,0,0,1.8,1.4,4.5.6.2,0,.4,0,.5.3,0,.2,0,.4-.3.5-.7.2-1.4.3-2,.3"/>
      <path class="cls-24" d="M381.9,71.1c-.4,0-.8,0-.8,0-.2,0-.4-.2-.3-.4s.2-.4.4-.3c0,0,2.7.3,4.3-1.1.2-.1.4-.1.6,0,.1.2.1.4,0,.6-1.3,1.2-3.1,1.4-4.1,1.4"/>
      <path class="cls-24" d="M397.9,77.7c-2.1,0-4-.9-4.1-1-.2,0-.3-.3-.2-.5,0-.2.3-.3.5-.2,0,0,4.5,2.2,7-.3.2-.2.4-.2.6,0,.2.2.2.4,0,.6-1.1,1.1-2.5,1.5-3.8,1.5"/>
      <path class="cls-24" d="M407.5,77.5c-2.1,0-3.7-.9-3.8-1-.2-.1-.2-.4-.1-.6s.4-.2.5-.1c.1,0,3.3,2,6.8-.1.2-.1.4,0,.5.1.1.2,0,.4-.1.5-1.4.8-2.7,1.1-3.8,1.1"/>
      <path class="cls-24" d="M416.3,77.3c-1.8,0-3.3-.9-3.3-.9-.2-.1-.2-.4-.1-.6.1-.2.4-.2.6-.1.1,0,2.8,1.8,5.4,0,.2-.1.4,0,.6,0,.1.2,0,.4,0,.6-1,.7-2.1,1-3,1"/>
      <path class="cls-24" d="M424.8,77.2c-2,0-3.2-1-3.3-1-.2-.1-.2-.4,0-.6.1-.2.4-.2.6,0,0,0,1.8,1.4,4.5.6.2,0,.4,0,.5.3,0,.2,0,.4-.3.5-.7.2-1.4.3-2,.3"/>
      <path class="cls-24" d="M387.4,77.9c-.5,0-.8,0-.8,0-.2,0-.4-.2-.3-.4,0-.2.2-.4.4-.3,0,0,2.7.3,4.3-1.1.2-.1.4-.1.6,0,.2.2.1.4,0,.6-1.3,1.2-3.1,1.4-4.1,1.4"/>
      <path class="cls-23" d="M205.8,167.8l-1.3-139.4,63.4-.7,1.6,140.1h-63.7"/>
      <path class="cls-16" d="M268,32.5l-63.4.5v1.1s63.4-.5,63.4-.5v-1.1"/>
      <path class="cls-16" d="M268,38.8l-63.4.4v1s63.4-.4,63.4-.4v-1.1"/>
      <path class="cls-16" d="M268.1,45l-63.4.9v1s63.4-.9,63.4-.9v-1.1"/>
      <path class="cls-29" d="M235.1,125.4c-8.9.2-7.7,16.3-7.7,16.3l.5,26h18.8l-1.1-26s.4-16.6-10.5-16.3"/>
      <path class="cls-24" d="M221.5,114.6h-10.8v-18.9h10.8v18.9"/>
      <path class="cls-19" d="M215.7,113.2h-3.6v-4.5h3.6v4.5"/>
      <path class="cls-19" d="M220.1,113.2h-3.6v-4.5h3.6v4.5"/>
      <path class="cls-19" d="M215.7,101.6h-3.6v-4.5h3.6v4.5"/>
      <path class="cls-19" d="M220.1,101.6h-3.6v-4.5h3.6v4.5"/>
      <path class="cls-19" d="M215.7,107.4h-3.6v-4.5h3.6v4.5"/>
      <path class="cls-19" d="M220.1,107.4h-3.6v-4.5h3.6v4.5"/>
      <path class="cls-24" d="M242.4,114.6h-10.8v-18.9h10.8v18.9"/>
      <path class="cls-19" d="M236.6,113.2h-3.6v-4.5h3.6v4.5"/>
      <path class="cls-19" d="M241,113.2h-3.6v-4.5h3.6v4.5"/>
      <path class="cls-19" d="M236.6,101.6h-3.6v-4.5h3.6v4.5"/>
      <path class="cls-19" d="M241,101.6h-3.6v-4.5h3.6v4.5"/>
      <path class="cls-19" d="M236.6,107.4h-3.6v-4.5h3.6v4.5"/>
      <path class="cls-19" d="M241,107.4h-3.6v-4.5h3.6v4.5"/>
      <path class="cls-24" d="M263.3,114.6h-10.8v-18.9h10.8v18.9"/>
      <path class="cls-19" d="M257.5,113.2h-3.6v-4.5h3.6v4.5"/>
      <path class="cls-19" d="M261.9,113.2h-3.6v-4.5h3.6v4.5"/>
      <path class="cls-19" d="M257.5,101.6h-3.6v-4.5h3.6v4.5"/>
      <path class="cls-19" d="M261.9,101.6h-3.6v-4.5h3.6v4.5"/>
      <path class="cls-19" d="M257.5,107.4h-3.6v-4.5h3.6v4.5"/>
      <path class="cls-19" d="M261.9,107.4h-3.6v-4.5h3.6v4.5"/>
      <path class="cls-24" d="M221.5,144.5h-10.8v-13.2h10.8v13.2"/>
      <path class="cls-19" d="M215.7,137.1h-3.6v-4.5h3.6v4.5"/>
      <path class="cls-19" d="M220.1,137.1h-3.6v-4.5h3.6v4.5"/>
      <path class="cls-19" d="M215.7,142.9h-3.6v-4.5h3.6v4.5"/>
      <path class="cls-19" d="M220.1,142.9h-3.6v-4.5h3.6v4.5"/>
      <path class="cls-24" d="M263.3,144.5h-10.8v-13.2h10.8v13.2"/>
      <path class="cls-19" d="M257.5,137.1h-3.6v-4.5h3.6v4.5"/>
      <path class="cls-19" d="M261.9,137.1h-3.6v-4.5h3.6v4.5"/>
      <path class="cls-19" d="M257.5,142.9h-3.6v-4.5h3.6v4.5"/>
      <path class="cls-19" d="M261.9,142.9h-3.6v-4.5h3.6v4.5"/>
      <path class="cls-16" d="M252.3,70.2c0,8.4-6.8,15.3-15.3,15.3s-15.3-6.8-15.3-15.3,6.8-15.3,15.3-15.3,15.3,6.8,15.3,15.3"/>
      <path class="cls-19" d="M236.1,58.3c-.3,0-.5-.2-.5-.5v-1.7c0-.3.2-.5.5-.5s.5.2.5.5v1.7c0,.3-.2.5-.5.5"/>
      <path class="cls-19" d="M236.9,84.4c-.3,0-.5-.2-.5-.5v-1.4c0-.3.2-.5.5-.5s.5.2.5.5v1.4c0,.3-.2.5-.5.5"/>
      <path class="cls-19" d="M225.2,71.4h-2.1c-.3,0-.5-.2-.5-.5s.2-.5.5-.5h2.1c.3,0,.5.2.5.5s-.2.5-.5.5"/>
      <path class="cls-19" d="M250.7,71.4h-2.1c-.3,0-.5-.2-.5-.5s.2-.5.5-.5h2.1c.3,0,.5.2.5.5s-.2.5-.5.5"/>
      <path class="cls-19" d="M246.7,63.3c-.2,0-.3,0-.4-.2-.2-.3,0-.6.2-.7l1.4-.9c.2-.2.6,0,.7.2.2.2,0,.6-.2.7l-1.4.9c0,0-.2,0-.3,0"/>
      <path class="cls-19" d="M225.2,77.9c-.2,0-.3,0-.4-.3-.2-.2,0-.6.2-.7l1.2-.7c.3-.2.6,0,.7.2.2.3,0,.6-.2.7l-1.2.7c0,0-.2,0-.3,0"/>
      <path class="cls-19" d="M229.9,61.1c-.2,0-.3,0-.4-.2l-1.1-1.8c-.2-.3,0-.6.2-.7s.6,0,.7.2l1.1,1.8c.2.2,0,.6-.2.7,0,0-.2,0-.3,0"/>
      <path class="cls-19" d="M243.6,82.6c-.2,0-.3,0-.4-.3l-1.1-1.8c-.2-.3,0-.6.2-.7.3-.2.6,0,.7.2l1.1,1.8c.2.2,0,.6-.2.7,0,0-.2,0-.3,0"/>
      <path class="cls-19" d="M242,59.4c0,0-.2,0-.3,0-.3-.1-.4-.5-.2-.7l.8-1.5c.1-.3.5-.4.7-.2.3.1.4.5.2.7l-.8,1.5c0,.2-.3.3-.5.3"/>
      <path class="cls-19" d="M230.3,82.7c0,0-.2,0-.3,0-.3-.1-.4-.5-.2-.7l.7-1.2c.1-.3.5-.4.7-.2s.4.5.2.7l-.6,1.2c0,.2-.3.3-.5.3"/>
      <path class="cls-19" d="M226.2,65.7c0,0-.2,0-.3,0l-1.9-1c-.3-.1-.4-.5-.2-.7.1-.3.5-.4.7-.2l1.9,1c.3.1.4.5.2.7,0,.2-.3.3-.5.3"/>
      <path class="cls-19" d="M248.7,77.8c0,0-.2,0-.3,0l-1.9-1c-.3-.1-.4-.5-.2-.7.1-.3.5-.4.7-.2l1.9,1c.3.1.4.5.2.7,0,.2-.3.3-.5.3"/>
      <path class="cls-19" d="M242.3,71.6h-5.9c-.3,0-.5-.2-.5-.5v-8.7c0-.3.2-.5.5-.5s.5.2.5.5v8.2h5.4c.3,0,.5.2.5.5s-.2.5-.5.5"/>
      <path class="cls-19" d="M235.1,64c0,0-.2,0-.2,0-.3-.1-.4-.5-.2-.7l1.2-2.3c0-.2.3-.3.4-.3.2,0,.4,0,.5.2l1.3,1.9c.2.2,0,.6-.1.7s-.6,0-.7-.2l-.8-1.1-.8,1.5c0,.2-.3.3-.5.3"/>
      <path class="cls-19" d="M240.8,72.9c-.2,0-.3,0-.4-.2-.2-.2,0-.6.2-.7l1.1-.8-1.5-.8c-.3-.1-.4-.5-.2-.7.1-.3.4-.4.7-.2l2.3,1.2c.2,0,.3.3.3.4,0,.2,0,.4-.2.5l-1.9,1.3c0,0-.2,0-.3,0"/>
      <path class="cls-19" d="M237.5,70.9c0,.6-.4,1-1,1s-1-.5-1-1,.5-1,1-1,1,.4,1,1"/>
      <path class="cls-19" d="M203.2,28.4l66.1-.6v-3.7c0,0-66.1.3-66.1.3v4"/>
      <path class="cls-30" d="M572.7,104.5l2,63.5h51.5l2.3-64.7-27.6-21.2-28.2,22.4"/>
      <path class="cls-33" d="M633.3,108.1c-.2,0-.5,0-.6-.2l-31.9-24.3-30.7,24.3c-.5.4-1.1.3-1.5-.2-.4-.5-.3-1.1.2-1.5l31.3-24.8c.4-.3.9-.3,1.3,0l32.6,24.8c.5.4.6,1,.2,1.5-.2.3-.5.4-.8.4"/>
      <path class="cls-19" d="M605.8,98.3c0,3-2.4,5.4-5.4,5.4s-5.4-2.4-5.4-5.4,2.4-5.4,5.4-5.4,5.4,2.4,5.4,5.4"/>
      <path class="cls-12" d="M589.2,129.1h-8.1v-10.2h8.1v10.2"/>
      <path class="cls-19" d="M584.6,123.1h-2.2v-2.8h2.2v2.8"/>
      <path class="cls-19" d="M588.1,123.1h-2.2v-2.8h2.2v2.8"/>
      <path class="cls-19" d="M584.6,127.7h-2.2v-2.8h2.2v2.8"/>
      <path class="cls-19" d="M588.1,127.7h-2.2v-2.8h2.2v2.8"/>
      <path class="cls-12" d="M604.5,129.1h-8.1v-10.2h8.1v10.2"/>
      <path class="cls-33" d="M599.8,123.1h-2.2v-2.8h2.2v2.8"/>
      <path class="cls-33" d="M603.3,123.1h-2.2v-2.8h2.2v2.8"/>
      <path class="cls-33" d="M599.8,127.7h-2.2v-2.8h2.2v2.8"/>
      <path class="cls-33" d="M603.3,127.7h-2.2v-2.8h2.2v2.8"/>
      <path class="cls-12" d="M619.7,129.1h-8.1v-10.2h8.1v10.2"/>
      <path class="cls-33" d="M615,123.1h-2.2v-2.8h2.2v2.8"/>
      <path class="cls-33" d="M618.5,123.1h-2.2v-2.8h2.2v2.8"/>
      <path class="cls-33" d="M615,127.7h-2.2v-2.8h2.2v2.8"/>
      <path class="cls-33" d="M618.5,127.7h-2.2v-2.8h2.2v2.8"/>
      <path class="cls-12" d="M589.2,159.6h-8.1v-10.2h8.1v10.2"/>
      <path class="cls-33" d="M584.6,153.5h-2.2v-2.8h2.2v2.8"/>
      <path class="cls-33" d="M588.1,153.5h-2.2v-2.8h2.2v2.8"/>
      <path class="cls-33" d="M584.6,158.2h-2.2v-2.8h2.2v2.8"/>
      <path class="cls-33" d="M588.1,158.2h-2.2v-2.8h2.2v2.8"/>
      <path class="cls-12" d="M619.7,159.6h-8.1v-10.2h8.1v10.2"/>
      <path class="cls-19" d="M615,153.5h-2.2v-2.8h2.2v2.8"/>
      <path class="cls-19" d="M618.5,153.5h-2.2v-2.8h2.2v2.8"/>
      <path class="cls-19" d="M615,158.2h-2.2v-2.8h2.2v2.8"/>
      <path class="cls-19" d="M618.5,158.2h-2.2v-2.8h2.2v2.8"/>
      <path class="cls-7" d="M594.9,168.3l-.4-18.2s.4-4.7,5.7-4.7,6,4.4,6,4.4v18.5h-11.3"/>
      <path class="cls-12" d="M598,159c0,.4-.3.8-.8.8s-.8-.3-.8-.8.3-.8.8-.8.8.3.8.8"/>
      <g class="cls-11">
        <path class="cls-33" d="M633,169.7h-65.2c-.6,0-1.1-.5-1.1-1.1s.5-1.1,1.1-1.1h65.2c.6,0,1.1.5,1.1,1.1s-.5,1.1-1.1,1.1"/>
      </g>
      <path class="cls-13" d="M604.5,131.2h-8.1c-.3,0-.5-.2-.5-.5s.2-.5.5-.5h8.1c.3,0,.5.2.5.5s-.2.5-.5.5"/>
      <path class="cls-13" d="M589.3,131.2h-8.1c-.3,0-.5-.2-.5-.5s.2-.5.5-.5h8.1c.3,0,.5.2.5.5s-.2.5-.5.5"/>
      <path class="cls-13" d="M619.7,131.2h-8.1c-.3,0-.5-.2-.5-.5s.2-.5.5-.5h8.1c.3,0,.5.2.5.5s-.2.5-.5.5"/>
      <path class="cls-13" d="M589.3,161.5h-8.1c-.3,0-.5-.2-.5-.5s.2-.5.5-.5h8.1c.3,0,.5.2.5.5s-.2.5-.5.5"/>
      <path class="cls-13" d="M619.9,161.5h-8.1c-.3,0-.5-.2-.5-.5s.2-.5.5-.5h8.1c.3,0,.5.2.5.5s-.2.5-.5.5"/>
      <path class="cls-13" d="M577.7,137.1c-.3,0-.5-.2-.5-.5,0-.3.2-.5.5-.5l44.4-.4c.3,0,.5.2.5.5,0,.3-.2.5-.5.5l-44.4.4h0"/>
      <path class="cls-13" d="M577.7,139.7c-.3,0-.5-.2-.5-.5,0-.3.2-.5.5-.5l44.4-.4c.3,0,.5.2.5.5,0,.3-.2.5-.5.5l-44.4.4h0"/>
      <path class="cls-17" d="M556.6,103.8l20.7,29.1-2.2,34.9h-40v-35.2l21.6-28.8"/>
      <path class="cls-7" d="M488.3,132.5l2.7,35.3h44v-35.4h-46.8"/>
      <path class="cls-19" d="M499.4,160.7s-1.6-11.3,2.1-11.5c4-.2,3.4,11.7,3.4,11.7l-5.5-.2"/>
      <path class="cls-19" d="M519.2,160.7s-.9-11.3,2.9-11.5c4-.2,2.3,11.7,2.3,11.7l-5.2-.2"/>
      <path class="cls-12" d="M564.7,160.7s-.9-11.3,2.9-11.5c4-.2,2.3,11.7,2.3,11.7l-5.2-.2"/>
      <path class="cls-33" d="M552.9,167.7h-10.3l-.8-17.9h12l-.8,17.9"/>
      <path class="cls-19" d="M555.7,123.4s-1.6-2.6-3.3-.9c-1.6,1.6-.5,3.8,3.4,6,.2.2,5.6-3.9,3.7-5.8-2-2-3.8.6-3.8.6"/>
      <path class="cls-30" d="M484.7,132.5h50.7l21.2-28.8h-47.4l-24.5,28.8"/>
      <path class="cls-17" d="M550.6,159.4c-.5,0-.8.4-.8.8s.4.8.8.8.8-.4.8-.8-.4-.8-.8-.8ZM550.6,161.6c-.7,0-1.3-.6-1.3-1.3s.6-1.3,1.3-1.3,1.3.6,1.3,1.3-.6,1.3-1.3,1.3"/>
      <path class="cls-33" d="M536.8,112.5s0,0,0,0c-.1,0-.3-.1-.3-.2l-1.7-3c-.1-.2,0-.5.2-.7.2-.1.5,0,.7.2l1.4,2.5,4.1-3.3c.2-.2.5-.1.7,0,.2.2.1.5,0,.7l-4.5,3.7c0,0-.2.1-.3.1"/>
      <path class="cls-33" d="M501.4,128.7s0,0-.1,0c-.1,0-.3-.1-.3-.3l-1.5-3.4c-.1-.2,0-.5.3-.6.2-.1.5,0,.6.3l1.2,2.9,4.7-3.7c.2-.2.5-.1.7,0,.2.2.1.5,0,.7l-5.2,4.1c0,0-.2.1-.3.1"/>
      <path class="cls-33" d="M511.6,128.5s0,0,0,0c-.1,0-.3-.1-.3-.2l-1.7-3c-.1-.2,0-.5.2-.7.2-.1.5,0,.7.2l1.4,2.5,4.1-3.3c.2-.2.5-.1.7,0,.2.2.1.5,0,.7l-4.5,3.7c0,0-.2.1-.3.1"/>
      <path class="cls-33" d="M520.8,128.7s0,0-.1,0c-.1,0-.3-.1-.3-.3l-1.5-3.4c-.1-.2,0-.5.3-.6.2-.1.5,0,.6.3l1.3,2.9,4.7-3.7c.2-.2.5-.1.7,0,.2.2.1.5,0,.7l-5.2,4.1c0,0-.2.1-.3.1"/>
      <path class="cls-33" d="M530.9,128.5s0,0,0,0c-.1,0-.3-.1-.3-.2l-1.7-3c-.1-.2,0-.5.2-.7.2-.1.5,0,.7.2l1.4,2.5,4.1-3.3c.2-.2.5-.1.7,0,.2.2.1.5,0,.7l-4.5,3.7c0,0-.2.1-.3.1"/>
      <path class="cls-33" d="M511.7,120.5s0,0,0,0c-.1,0-.3-.1-.3-.2l-1.7-3c-.1-.2,0-.5.2-.7.2-.1.5,0,.7.2l1.4,2.5,4.1-3.3c.2-.2.5-.1.7,0,.2.2.1.5,0,.7l-4.5,3.7c0,0-.2.1-.3.1"/>
      <path class="cls-33" d="M521,120.5s0,0-.1,0c-.1,0-.3-.1-.3-.3l-1.5-3.4c-.1-.3,0-.5.3-.6.2-.1.5,0,.6.3l1.3,2.9,4.7-3.7c.2-.2.5-.1.7,0,.2.2.1.5,0,.7l-5.2,4.1c0,0-.2.1-.3.1"/>
      <path class="cls-33" d="M531.1,120.5s0,0,0,0c-.1,0-.3-.1-.3-.2l-1.7-3c-.1-.2,0-.5.2-.7.2-.1.5,0,.7.2l1.4,2.5,4.1-3.3c.2-.2.5-.1.7,0,.2.2.1.5,0,.7l-4.5,3.7c0,0-.2.1-.3.1"/>
      <path class="cls-33" d="M517.4,112.5s0,0,0,0c-.1,0-.3-.1-.3-.2l-1.7-3c-.1-.2,0-.5.2-.7.2-.1.5,0,.7.2l1.4,2.5,4.1-3.3c.2-.2.5-.1.7,0,.2.2.1.5,0,.7l-4.5,3.7c0,0-.2.1-.3.1"/>
      <path class="cls-33" d="M526.7,112.7s0,0-.1,0c-.1,0-.3-.1-.3-.3l-1.5-3.4c-.1-.2,0-.5.3-.6s.5,0,.6.3l1.2,2.9,4.7-3.7c.2-.2.5-.1.7,0,.2.2.1.5,0,.7l-5.2,4.1c0,0-.2.1-.3.1"/>
      <g class="cls-14">
        <path class="cls-16" d="M765.8,170.4H63.4v-3.1h702.5v3.1"/>
      </g>
      <path class="cls-16" d="M282.6,169.1h3.3c.9-1.3,3.3-5,2.1-5.4-1.5-.6-2.1,2-2.1,2,0,0,1.7-7.8-1.7-7.5-3.5.2-.9,6.9-.9,6.9,0,0-1.9-3-3.7-1.6-1.9,1.4,1.6,4.4,3,5.7"/>
      <path class="cls-16" d="M454.4,169.1h3.3c.9-1.3,3.3-5,2.1-5.4-1.5-.6-2.1,2-2.1,2,0,0,1.7-7.8-1.7-7.5-3.5.2-.9,6.9-.9,6.9,0,0-1.9-3-3.7-1.6-1.9,1.4,1.6,4.4,3,5.7"/>
      <path class="cls-16" d="M100,169.1h3.3c.9-1.3,3.3-5,2.1-5.4-1.5-.6-2.1,2-2.1,2,0,0,1.7-7.8-1.7-7.5-3.5.2-.9,6.9-.9,6.9,0,0-1.9-3-3.7-1.6-1.9,1.4,1.6,4.4,3,5.7"/>
      <path class="cls-16" d="M694.5,72.6c-.9-2.8-3.4-4.8-6.8-5.9,0-3.3-1.2-6.5-3.6-9-5-5-13.5-4.8-19.4.5-3.3-3.3-8.1-3.7-10.9-1-2.4,2.4-2.3,6.4,0,9.5-3.7-.5-7.7,2.1-8.5,5.8-.8,3.6,1.2,7.5,4.3,9.4,3,1.8,6.8,2,10.2,1,0,.4.2.8.3,1.2,2,6.1,11.4,8.5,20.9,5.3,1.4-.5,2.7-1,3.9-1.7.2,0,.4-.2.6-.3,6.8-3.7,10.7-9.8,9-14.9"/>
      <path class="cls-16" d="M699.1,99.8c0-2.8-2.7-5.1-6.2-5.2-2.5,0-4.6,1-5.8,2.5-1.1-.3-5.2-1-5.7,3.4-.6,5,5.5,4.7,5.5,4.7,0,0,.2,1.8,3.4,1.7,3.6,0,3.4-1.7,3.6-2.5,3.1-.3,5-2.1,5.1-4.6"/>
      <path class="cls-16" d="M661.4,92.9c-1.8,0-3.4.8-4.5,2.1-.9-1-2.5-1.7-4.3-1.7-2.9,0-5.2,1.8-5.2,4s.6,2.1,1.6,2.8c-1.4.7-2.3,1.9-2.3,3.2,0,2.2,2.7,4.1,6,4.1s4.7-1.1,5.5-2.6c.9.6,2,1,3.2,1,3.4,0,6.1-2.9,6.1-6.4s-2.7-6.4-6.1-6.4"/>
      <path class="cls-22" d="M671,114.3c-12.7,0-17-11.6-17-11.8,0-.2,0-.4.2-.5.2,0,.4,0,.5.2.2.5,4.9,13.1,19.5,11,.2,0,.4.1.4.3,0,.2-.1.4-.3.4-1.1.2-2.2.2-3.3.2"/>
      <path class="cls-22" d="M662.7,112s0,0-.1,0c-.2,0-.3-.3-.3-.5,1.3-4.6-1.7-10.5-1.7-10.6,0-.2,0-.4.2-.5.2,0,.4,0,.5.2.1.3,3.1,6.3,1.8,11.2,0,.2-.2.3-.4.3"/>
      <g class="cls-26">
        <path class="cls-22" d="M677.8,170.2c-.2,0-.3,0-.4-.3-2.9-8.3-4.1-92.9-4.2-96.5,0-.2.2-.4.4-.4.2,0,.4.2.4.4,0,.9,1.3,88.1,4.1,96.3,0,.2,0,.4-.2.5,0,0,0,0-.1,0"/>
      </g>
      <path class="cls-22" d="M673.6,95.3s0,0-.1,0c-5.3-1.5-7.5-12.3-7.6-12.7,0-.2,0-.4.3-.5.2,0,.4,0,.5.3,0,.1,2.2,10.8,7,12.1.2,0,.3.3.3.5,0,.2-.2.3-.4.3"/>
      <path class="cls-22" d="M674.3,98c-.2,0-.4-.1-.4-.3,0-.2.1-.4.3-.4,10-1.2,8.4-17.8,8.4-18,0-.2.1-.4.3-.4.2,0,.4.1.4.3,0,.2,1.7,17.5-9.1,18.8h0"/>
      <path class="cls-22" d="M674.8,120.2c-.2,0-.4-.2-.4-.4,0-.2.1-.4.4-.4,8.6-.6,14.1-2.9,16.5-6.9,2.4-4,.5-8.4.5-8.4,0-.2,0-.4.2-.5s.4,0,.5.2c0,.2,2.1,4.8-.5,9.2-2.5,4.2-8.3,6.6-17.1,7.3h0"/>
      <path class="cls-22" d="M690.2,114.3c0,0-.2,0-.3-.1-6.8-6.4-3.8-11-3.7-11.2.1-.2.4-.2.5-.1.2.1.2.4.1.5-.1.2-2.7,4.3,3.6,10.2.2.2.2.4,0,.6,0,0-.2.1-.3.1"/>
      <path class="cls-22" d="M693.5,108.2c-.2,0-.3-.1-.4-.3,0-.2,0-.4.3-.5,2.4-.6,3.8-1.6,4.2-2.8.5-1.7-.9-3.4-.9-3.4-.1-.2-.1-.4,0-.5.2-.1.4-.1.6,0s1.7,2.1,1,4.1c-.5,1.5-2.1,2.7-4.8,3.3,0,0,0,0,0,0"/>
      <path class="cls-22" d="M674,133.1c-1.6,0-4.4-1.4-4.8-1.5-.2,0-.3-.3-.2-.5,0-.2.3-.3.5-.2.9.5,3.6,1.6,4.6,1.4.2,0,.4.1.4.3s-.1.4-.3.4c-.1,0-.2,0-.4,0"/>
      <path class="cls-22" d="M675.6,136.3c-.2,0-.3-.1-.4-.3,0-.2,0-.4.3-.5,0,0,3.3-.7,4.4-2.1.1-.2.4-.2.5,0s.2.4,0,.6c-1.2,1.5-4.7,2.3-4.9,2.3,0,0,0,0,0,0"/>
      <path class="cls-22" d="M675.1,145.3c-1.5,0-5.6-1.4-5.7-1.5-.2,0-.3-.3-.2-.5,0-.2.3-.3.5-.2,0,0,4.1,1.4,5.5,1.4s.4.2.4.4-.2.4-.4.4"/>
      <path class="cls-22" d="M676.1,153c-.1,0-.2,0-.3-.2-.1-.2,0-.4,0-.5l2.1-1.5c.2-.1.4,0,.5,0,.1.2,0,.4,0,.5l-2.1,1.5c0,0-.2,0-.2,0"/>
      <path class="cls-16" d="M191.4,53.5c-1.1-3.4-4.1-5.8-8.1-7,0-4-1.4-7.8-4.3-10.7-6-6-16.2-5.7-23.2.6-3.9-3.9-9.7-4.5-13-1.2s-2.8,7.6-.1,11.4c-4.4-.6-9.2,2.5-10.2,6.9-1,4.3,1.4,8.9,5.2,11.2,3.6,2.2,8.2,2.4,12.2,1.2,0,.5.2,1,.3,1.4,2.4,7.3,13.6,10.2,25,6.4,1.7-.6,3.2-1.2,4.7-2,.2-.1.5-.2.7-.4,8.1-4.5,12.8-11.7,10.8-17.8"/>
      <path class="cls-16" d="M196.9,86.1c.1-3.3-3.2-6.1-7.5-6.3-3-.1-5.5,1.1-6.9,3-1.3-.3-6.2-1.1-6.8,4.1-.7,6,6.6,5.6,6.6,5.6,0,0,.2,2.1,4.1,2,4.3,0,4-2.1,4.3-3,3.7-.3,6-2.5,6.1-5.5"/>
      <path class="cls-16" d="M151.8,77.8c-2.1,0-4,1-5.4,2.5-1.1-1.3-3-2.1-5.2-2.1-3.5,0-6.3,2.1-6.3,4.8s.7,2.5,1.9,3.4c-1.6.9-2.7,2.2-2.7,3.8,0,2.7,3.2,4.8,7.1,4.8s5.6-1.3,6.6-3.1c1.1.7,2.5,1.2,3.9,1.2,4,0,7.3-3.4,7.3-7.6s-3.3-7.6-7.3-7.6"/>
      <path class="cls-22" d="M163.3,103.4c-15.2,0-20.3-13.9-20.4-14.1,0-.2,0-.5.3-.6.2,0,.5,0,.6.3.2.6,5.8,15.7,23.3,13.2.3,0,.5.1.5.4s-.1.5-.4.5c-1.4.2-2.7.3-3.9.3"/>
      <path class="cls-22" d="M153.3,100.6s0,0-.1,0c-.3,0-.4-.3-.3-.6,1.5-5.5-2-12.6-2-12.7-.1-.2,0-.5.2-.6.2-.1.5,0,.6.2.2.3,3.8,7.5,2.1,13.3,0,.2-.2.3-.5.3"/>
      <g class="cls-34">
        <path class="cls-22" d="M171.4,170.3c-.2,0-.4-.1-.4-.3-3.5-9.9-4.9-111.2-5-115.5,0-.3.2-.5.5-.5s.5.2.5.5c0,1.1,1.5,105.5,4.9,115.2,0,.2,0,.5-.3.6,0,0-.1,0-.2,0"/>
      </g>
      <path class="cls-22" d="M166.4,80.6s0,0-.1,0c-6.3-1.8-9-14.7-9.1-15.3,0-.3.1-.5.4-.6.3,0,.5.1.6.4,0,.1,2.6,12.9,8.4,14.5.3,0,.4.3.3.6,0,.2-.2.3-.4.3"/>
      <path class="cls-22" d="M167.3,83.8c-.2,0-.4-.2-.5-.4,0-.3.2-.5.4-.5,12-1.5,10-21.3,10-21.5,0-.3.2-.5.4-.5.3,0,.5.2.5.4,0,.2,2.1,20.9-10.8,22.5,0,0,0,0,0,0"/>
      <path class="cls-22" d="M167.9,110.4c-.2,0-.4-.2-.5-.4,0-.3.2-.5.4-.5,10.3-.7,16.9-3.5,19.8-8.2,2.9-4.8.6-10,.6-10.1-.1-.2,0-.5.2-.6.2-.1.5,0,.6.2,0,.2,2.5,5.7-.6,11-3,5-9.9,7.9-20.5,8.7h0"/>
      <path class="cls-22" d="M186.3,103.4c-.1,0-.2,0-.3-.1-8.1-7.7-4.6-13.2-4.4-13.4.1-.2.4-.3.7-.1.2.1.3.4.1.6-.1.2-3.2,5.2,4.3,12.3.2.2.2.5,0,.7,0,0-.2.2-.3.2"/>
      <path class="cls-22" d="M190.2,96.1c-.2,0-.4-.1-.5-.4,0-.3,0-.5.3-.6,2.9-.7,4.6-1.9,5.1-3.4.6-2-1-4-1.1-4.1-.2-.2-.1-.5,0-.7.2-.2.5-.1.7,0s2,2.5,1.2,4.9c-.6,1.8-2.5,3.2-5.7,4,0,0,0,0-.1,0"/>
      <path class="cls-22" d="M166.9,125.9c-1.9,0-5.3-1.6-5.7-1.8-.2-.1-.3-.4-.2-.6.1-.2.4-.3.6-.2,1.1.5,4.3,1.9,5.6,1.7.3,0,.5.1.5.4s-.1.5-.4.5c-.1,0-.3,0-.4,0"/>
      <path class="cls-22" d="M168.8,129.7c-.2,0-.4-.1-.5-.4,0-.3.1-.5.4-.6,0,0,4-.9,5.3-2.5.2-.2.5-.2.7,0,.2.2.2.5,0,.7-1.5,1.8-5.6,2.8-5.8,2.8,0,0,0,0,0,0"/>
      <path class="cls-22" d="M168.2,140.5c-1.8,0-6.7-1.7-6.9-1.8-.2,0-.4-.3-.3-.6,0-.2.4-.4.6-.3,0,0,4.9,1.7,6.6,1.7s.5.2.5.5-.2.5-.5.5"/>
      <path class="cls-22" d="M169.4,149.7c-.1,0-.3,0-.4-.2-.2-.2-.1-.5.1-.7l2.5-1.8c.2-.1.5,0,.7.1s.1.5-.1.7l-2.5,1.8c0,0-.2,0-.3,0"/>
      <path class="cls-16" d="M730.4,169.1h3.3c.9-1.3,3.3-5,2.1-5.4-1.5-.6-2.1,2-2.1,2,0,0,1.7-7.8-1.7-7.5-3.5.2-.9,6.9-.9,6.9,0,0-1.9-3-3.7-1.6-1.9,1.4,1.6,4.4,3,5.7"/>
      <path class="cls-16" d="M117.2,169.1h3.3c.9-1.3,3.3-5,2.1-5.4-1.5-.6-2.1,2-2.1,2,0,0,1.7-7.8-1.7-7.5-3.5.2-.9,6.9-.9,6.9,0,0-1.9-3-3.7-1.6-1.9,1.4,1.6,4.4,3,5.7"/>
      <path class="cls-16" d="M184,153.2c.7,1.6,1.6,3.2,2.9,4.2,2.1,1.6,4.8,2,7.4,2.2,3.8.3,7.8.5,11.1-1.3,10.6-5.8,5.5-23.6-4.9-26.4-12-3.2-20.8,10.9-16.5,21.3"/>
      <g class="cls-27">
        <path class="cls-22" d="M197.4,170.2c-.2,0-.4-.2-.4-.4v-26.3c0-.2.2-.4.4-.4s.4.2.4.4v26.3c0,.2-.2.4-.4.4"/>
      </g>
      <path class="cls-22" d="M196.8,157c-7.4,0-8.5-8.3-8.6-8.4,0-.2.1-.4.3-.4.2,0,.4.1.4.3,0,.3,1.1,8.1,8.3,7.7,7.3-.4,8.4-10.2,8.4-10.3,0-.2.2-.4.4-.3.2,0,.4.2.3.4,0,.1-1.2,10.6-9.1,11-.2,0-.4,0-.6,0"/>
      <path class="cls-22" d="M196.9,153.1c-4.7,0-5.4-5.3-5.4-5.4,0-.2.1-.4.3-.4.2,0,.4.1.4.3,0,.2.6,4.7,4.7,4.7s4.1-5.6,4.1-5.8.2-.4.4-.4.4.2.4.4c0,2.3-1,6.6-4.8,6.6"/>
      <path class="cls-16" d="M418.6,153.2c.7,1.6,1.6,3.2,2.9,4.2,2.1,1.6,4.8,2,7.5,2.2,3.8.3,7.8.5,11.1-1.3,10.6-5.8,5.5-23.6-4.9-26.4-12-3.2-20.8,10.9-16.6,21.3"/>
      <g class="cls-4">
        <path class="cls-22" d="M432,170.2c-.2,0-.4-.2-.4-.4v-26.3c0-.2.2-.4.4-.4s.4.2.4.4v26.3c0,.2-.2.4-.4.4"/>
      </g>
      <path class="cls-22" d="M431.4,157c-7.4,0-8.5-8.3-8.6-8.4,0-.2.1-.4.3-.4.2,0,.4.1.4.3,0,.3,1.1,8.1,8.3,7.7,7.3-.4,8.4-10.2,8.4-10.3,0-.2.2-.4.4-.3.2,0,.4.2.4.4,0,.1-1.2,10.6-9.1,11-.2,0-.4,0-.6,0"/>
      <path class="cls-22" d="M431.5,153.1c-4.7,0-5.4-5.3-5.4-5.4,0-.2.1-.4.3-.4.2,0,.4.1.4.3,0,.2.6,4.7,4.7,4.7s4.1-5.6,4.1-5.8.2-.4.4-.4.4.2.4.4c0,2.3-1,6.6-4.8,6.6"/>
      <path class="cls-16" d="M265,123.6s-22.3,31.7.2,31.7c.2.2,14,.6,11.1-14.5-2.5-13.4-11.3-17.2-11.3-17.2"/>
      <g class="cls-31">
        <path class="cls-22" d="M266.9,170.2s0,0,0,0c-.2,0-.4-.2-.3-.5.6-3.1-2.2-35.6-2.3-35.9,0-.2.1-.4.4-.4s.4.1.4.4c.1,1.3,2.8,32.9,2.3,36.1,0,.2-.2.3-.4.3"/>
      </g>
      <path class="cls-22" d="M265.7,152.3c-3.7,0-6.1-4.4-6.2-4.6,0-.2,0-.4.2-.5.2-.1.4,0,.5.2,0,0,2.4,4.3,5.7,4.1,3.3-.2,5.7-5.9,5.7-6,0-.2.3-.3.5-.2s.3.3.2.5c-.1.3-2.6,6.3-6.4,6.5,0,0-.2,0-.2,0"/>
      <path class="cls-22" d="M265.5,144.5c0,0-.1,0-.2,0-2.8-.2-3.7-2-3.7-2.1,0-.2,0-.4.2-.5.2,0,.4,0,.5.2,0,0,.7,1.5,3.1,1.7.5,0,1-.2,1.4-.6,1.6-1.4,2.6-4.6,2.7-5,0-.2.2-.4.4-.4.2,0,.4.2.4.4,0,.6-1.1,4-2.8,5.5-.6.6-1.3.9-1.9.9"/>
      <path class="cls-16" d="M150.4,123.6s-22.3,31.7.2,31.7c.2.2,14,.6,11.1-14.5-2.5-13.4-11.3-17.2-11.3-17.2"/>
      <g class="cls-3">
        <path class="cls-22" d="M152.3,170.2s0,0,0,0c-.2,0-.4-.2-.3-.5.6-3.1-2.2-35.6-2.3-35.9,0-.2.1-.4.4-.4.2,0,.4.1.4.4.1,1.3,2.8,32.9,2.3,36.1,0,.2-.2.3-.4.3"/>
      </g>
      <path class="cls-22" d="M151.1,152.3c-3.7,0-6.1-4.4-6.2-4.6-.1-.2,0-.4.2-.5.2-.1.4,0,.5.2,0,0,2.4,4.3,5.7,4.1,3.3-.2,5.7-5.9,5.7-6,0-.2.3-.3.5-.2.2,0,.3.3.2.5-.1.3-2.6,6.3-6.4,6.5,0,0-.2,0-.2,0"/>
      <path class="cls-22" d="M150.9,144.5c0,0-.1,0-.2,0-2.8-.2-3.7-2-3.7-2.1,0-.2,0-.4.2-.5.2,0,.4,0,.5.2,0,0,.7,1.5,3.1,1.7.5,0,1-.2,1.4-.6,1.6-1.4,2.6-4.6,2.7-5s.2-.4.4-.4c.2,0,.4.2.4.4,0,.6-1.1,4-2.8,5.5-.6.6-1.3.9-1.9.9"/>
      <path class="cls-16" d="M701.5,123.6s-22.3,31.7.2,31.7c.2.2,14,.6,11.1-14.5-2.5-13.4-11.3-17.2-11.3-17.2"/>
      <g class="cls-5">
        <path class="cls-22" d="M703.4,170.2s0,0,0,0c-.2,0-.3-.2-.3-.5.6-3.1-2.2-35.6-2.3-35.9,0-.2.1-.4.4-.4.2,0,.4.1.4.4.1,1.3,2.8,32.9,2.3,36.1,0,.2-.2.3-.4.3"/>
      </g>
      <path class="cls-22" d="M702.2,152.3c-3.6,0-6.1-4.4-6.2-4.6-.1-.2,0-.4.2-.5.2-.1.4,0,.5.2,0,0,2.4,4.3,5.7,4.1,3.3-.2,5.7-5.9,5.7-6,0-.2.3-.3.5-.2s.3.3.2.5c-.1.3-2.6,6.3-6.4,6.5,0,0-.2,0-.2,0"/>
      <path class="cls-22" d="M702,144.5c0,0-.1,0-.2,0-2.8-.2-3.7-2-3.7-2.1,0-.2,0-.4.2-.5.2,0,.4,0,.5.2,0,0,.7,1.5,3.1,1.7.5,0,1-.2,1.4-.6,1.6-1.4,2.6-4.6,2.7-5,0-.2.2-.4.4-.4.2,0,.4.2.4.4,0,.6-1.1,4-2.8,5.5-.6.6-1.3.9-1.9.9"/>
      <path class="cls-16" d="M744.7,169.1h3.3c.9-1.3,3.3-5,2.1-5.4-1.5-.6-2.1,2-2.1,2,0,0,1.7-7.8-1.7-7.5-3.5.2-.9,6.9-.9,6.9,0,0-1.9-3-3.7-1.6-1.9,1.4,1.6,4.4,3,5.7"/>
      <path class="cls-16" d="M489.7,169.1h3.3c.9-1.3,3.3-5,2.1-5.4-1.5-.6-2.1,2-2.1,2,0,0,1.7-7.8-1.7-7.5-3.5.2-.9,6.9-.9,6.9,0,0-1.9-3-3.7-1.6-1.9,1.4,1.6,4.4,3,5.7"/>
      <path class="cls-16" d="M569.7,153.2c.7,1.6,1.6,3.2,2.9,4.2,2.1,1.6,4.8,2,7.5,2.2,3.8.3,7.8.5,11.1-1.3,10.6-5.8,5.5-23.6-4.9-26.4-12-3.2-20.8,10.9-16.6,21.3"/>
      <g class="cls-28">
        <path class="cls-22" d="M583.1,170.2c-.2,0-.4-.2-.4-.4v-26.3c0-.2.2-.4.4-.4s.4.2.4.4v26.3c0,.2-.2.4-.4.4"/>
      </g>
      <path class="cls-22" d="M582.5,157c-7.4,0-8.5-8.3-8.6-8.4,0-.2.1-.4.3-.4.2,0,.4.1.4.3,0,.3,1.1,8.1,8.3,7.7,7.3-.4,8.4-10.2,8.4-10.3,0-.2.2-.4.4-.3.2,0,.4.2.3.4,0,.1-1.2,10.6-9.1,11-.2,0-.4,0-.6,0"/>
      <path class="cls-22" d="M582.6,153.1c-4.7,0-5.4-5.3-5.4-5.4,0-.2.1-.4.3-.4.2,0,.4.1.4.3,0,.2.6,4.7,4.7,4.7s4.1-5.6,4.1-5.8.2-.4.4-.4.4.2.4.4c0,2.3-1,6.6-4.8,6.6"/>
    </g>
  </g>
</svg>