<svg width="317" height="170" viewBox="0 0 317 170" fill="none" xmlns="http://www.w3.org/2000/svg">
                    <g clip-path="url(#clip0_60_181)">
                        <path d="M130.986 33.288C129.545 33.9098 128.119 34.4871 126.707 35.007L126.641 35.0147C123.273 35.4353 118.512 36.5564 115.063 37.3273C110.437 38.3551 106.248 40.5966 102.807 41.4025C100.254 41.9049 97.6593 42.1659 95.0572 42.182C90.8604 42.1734 80.9336 40.5777 76.1007 39.6895L75.3401 39.5499C73.3572 53.696 64.3944 96.1529 59.5521 111.496C61.3642 111.639 64.0828 111.877 67.8504 112.305C70.2002 112.622 72.5124 113.173 74.7521 113.949C75.0251 114.04 75.2946 114.138 75.5607 114.242C75.5607 114.242 99.8412 125.454 107.472 130.645C115.865 136.355 152.3 158.624 152.3 158.624C156.813 161.048 161.486 163.165 166.285 164.962C170.088 166.241 174.18 166.396 178.069 165.41C181.653 164.32 183.417 161.693 183.585 159.005L183.499 157.626C186.777 159.009 194.185 160.298 199.294 156.023C201.612 154.084 202.986 149.679 201.965 146.887L201.749 145.99C206.466 148.608 214.855 148.731 219.769 142.826C222.539 139.5 221.822 132.991 217.63 129.175L218.116 129.503C225.2 131.802 231.724 128.551 233.885 124.935C235.945 121.492 236.843 115.797 232.617 111.309C236.62 108.719 241.616 106.164 245.822 103.581C249.19 101.454 252.684 99.5333 256.285 97.83C251.322 80.4001 243.571 43.9121 241.571 30.3177C238.559 31.026 235.186 31.7026 231.289 32.3193C226.036 33.27 179.707 23.7885 166.358 22.3582C153.586 21.5513 141.879 28.5858 130.986 33.288Z" fill="white"></path>
                        <path d="M92.0759 130.112C93.9058 125.888 96.4193 121.994 99.5158 118.584C101.112 116.606 103.06 114.938 105.26 113.662C107.178 112.717 109.322 112.326 111.451 112.534C113.579 112.742 115.607 113.54 117.305 114.838C120.653 117.473 121.955 122.466 120.933 126.572C119.912 130.678 112.104 142.337 107.378 145.261C106.016 146.04 104.498 146.509 102.933 146.635C101.368 146.761 99.794 146.54 98.3243 145.989C95.0014 144.597 93.312 142.734 91.8149 139.46C90.6664 136.948 90.832 133.015 92.0759 130.112Z" fill="white"></path>
                        <path d="M114.107 141.58C115.536 137.358 117.651 133.398 120.368 129.86C121.751 127.824 123.496 126.058 125.518 124.651C127.294 123.587 129.333 123.039 131.404 123.07C133.476 123.101 135.497 123.71 137.24 124.828C140.68 127.105 142.339 131.821 141.681 135.864C141.022 139.907 134.417 151.786 130.092 154.985C128.839 155.845 127.411 156.419 125.91 156.665C124.41 156.911 122.873 156.824 121.41 156.408C118.09 155.329 116.311 153.662 114.603 150.624C113.293 148.296 113.14 144.483 114.107 141.58Z" fill="white"></path>
                        <path d="M133.099 156.655C133.763 152.98 136.499 146.581 139.444 143.986C140.768 142.886 142.378 142.185 144.087 141.965C145.795 141.745 147.531 142.015 149.091 142.743C152.187 144.206 153.727 148.531 153.669 151.929C153.612 155.326 150.993 162.63 147.819 165.77C146.893 166.625 145.788 167.265 144.585 167.645C143.382 168.024 142.11 168.134 140.859 167.967C139.594 167.786 138.381 167.341 137.299 166.662C136.217 165.982 135.291 165.083 134.581 164.022C133.165 161.844 132.635 159.209 133.099 156.655Z" fill="white"></path>
                        <path d="M71.0205 125.891C69.963 123.157 70.8343 118.381 72.5803 116.228C75.3968 112.752 81.6152 113.594 84.9707 115.697C87.4438 117.246 90.7221 120.723 91.4544 122.427C93.6725 127.061 91.4767 131.126 89.8345 132.394C87.9074 133.884 83.1861 134.374 80.779 133.993C78.6012 133.57 76.5655 132.605 74.8599 131.189C73.1543 129.773 71.8339 127.951 71.0205 125.891Z" fill="white"></path>
                        <path d="M246.685 24.5277C249.341 23.6867 252.344 22.7899 254.384 22.2032L254.65 22.1252C261.191 48.6769 266.668 82.8318 272.218 102.996C271.972 103.066 271.844 103.104 271.844 103.104C268.378 104.149 263.024 104.953 259.009 106.006C254.514 96.2635 241.789 36.5556 241.111 26.4977C242.931 25.7366 244.791 25.0789 246.685 24.5277Z" fill="white"></path>
                        <path d="M44.9649 112.084C50.4588 91.849 55.8772 58.1712 62.3419 31.915C62.5136 31.9467 62.6158 31.9604 62.6158 31.9604C66.6589 33.1219 74.2362 35.5209 75.7067 36.3218C75.0302 46.3797 62.487 106.02 57.9914 115.763C53.9758 114.71 48.6218 113.907 45.1563 112.862L44.7829 112.751C44.8442 112.531 44.9048 112.308 44.9649 112.084Z" fill="white"></path>
                        <path d="M2.23962 11.7341C21.9953 17.1096 54.8677 25.6746 63.2733 28.2227C55.1681 59.6881 48.7325 103.98 41.8806 121.868C34.9677 120.274 13.8455 114.861 1.40009 111.761" fill="#714C45"></path>
                        <path d="M314.76 1.96997C295.006 7.34625 262.132 15.9104 253.727 18.4586C261.831 49.9283 268.267 94.2181 275.119 112.108C282.032 110.514 303.154 105.102 315.599 102.001" fill="#714C45"></path>
                        <path d="M161.065 57.2394C157.764 56.5774 154.067 57.3251 150.823 57.9495C148.821 58.3275 146.845 58.8272 144.905 59.4458C143.031 60.0522 140.699 60.7306 139.254 62.1301C138.488 62.9848 137.871 63.9609 137.428 65.0182C136.878 66.0966 136.339 67.1792 135.797 68.261C134.824 70.2026 133.846 72.1443 132.765 74.0287C130.741 77.757 127.992 81.0453 124.68 83.7012C123.19 84.9516 121.364 85.7353 119.43 85.9538C117.632 86.295 115.777 86.1756 114.038 85.6069C112.321 84.902 110.505 83.2986 110.275 81.3552C110.231 80.1962 110.278 79.0356 110.413 77.8838C110.471 76.478 110.517 75.0716 110.552 73.6646C110.661 69.2382 110.655 64.805 111.01 60.3888C111.198 58.0614 111.489 55.7488 111.884 53.4511C112.305 50.9964 112.717 48.3772 113.881 46.1451C116.027 42.0288 120.417 39.1689 124.739 37.7659C129.165 36.2468 133.493 34.4594 137.701 32.4136C146.431 28.3512 155.601 23.9419 165.476 24.2897C166.116 24.312 166.745 24.3753 167.38 24.4499C167.612 24.4784 167.844 24.507 168.076 24.5355L168.44 24.5826C168.596 24.6032 168.539 24.5955 168.268 24.5586L168.575 24.6006C169.768 24.7656 170.958 24.9401 172.148 25.1239C175.152 25.5864 178.143 26.0884 181.134 26.5997C188.159 27.7988 195.172 29.0604 202.192 30.2827C208.624 31.4038 215.058 32.5293 221.522 33.4449C223.785 33.7661 226.054 34.0821 228.332 34.2637C230.456 34.3703 232.586 34.1952 234.664 33.7429C237.163 33.3016 239.649 32.7942 242.121 32.2209C244.702 31.6214 243.609 27.6575 241.026 28.2562C238.423 28.8591 235.807 29.3896 233.176 29.8476C232.434 29.9769 231.69 30.0899 230.949 30.2193C230.185 30.352 231.358 30.2407 230.963 30.2193C230.706 30.2056 230.428 30.2458 230.165 30.2441C228.323 30.1924 226.486 30.0294 224.663 29.7559L223.834 29.6488C223.281 29.576 224.129 29.6891 223.78 29.6411L223.34 29.5812C222.628 29.4824 221.918 29.3805 221.208 29.2754C219.737 29.0584 218.268 28.8323 216.801 28.5971C213.372 28.0497 209.949 27.469 206.527 26.8789C193.509 24.634 180.503 21.9249 167.383 20.3343C157.769 19.1695 148.224 23.082 139.676 26.9834C135.293 28.9833 130.973 31.1589 126.456 32.8376C124.152 33.5749 121.89 34.4396 119.681 35.4277C117.427 36.56 115.367 38.0393 113.574 39.8113C111.65 41.694 110.182 43.9905 109.282 46.5254C108.479 49.0619 107.917 51.6684 107.606 54.3102C106.958 58.9415 106.605 63.6091 106.548 68.2849C106.5 70.6095 106.466 72.934 106.396 75.2577C106.354 76.6653 106.296 78.0716 106.224 79.4769C105.964 81.3882 106.325 83.3325 107.254 85.024C108.183 86.7156 109.631 88.0651 111.386 88.8745C113.4 89.8876 115.651 90.3391 117.901 90.1815C120.177 90.1698 122.425 89.6853 124.502 88.7588C126.578 87.6069 128.464 86.1438 130.095 84.4206C133.151 81.258 135.697 77.6417 137.643 73.7006C138.74 71.6159 139.77 69.4952 140.838 67.3942C141.243 66.5968 141.599 65.4422 142.351 64.918C143.088 64.4635 143.881 64.1068 144.71 63.8568C148.459 62.4954 152.368 61.6231 156.342 61.2616C157.107 61.1914 157.877 61.14 158.646 61.1365C158.944 61.1365 159.243 61.1365 159.541 61.1571C159.695 61.1665 159.849 61.1802 160.003 61.1956C159.42 61.1374 159.844 61.1777 159.975 61.2042C160.502 61.3353 161.058 61.2594 161.53 60.9922C162.002 60.7249 162.352 60.2868 162.509 59.7687C162.649 59.2431 162.577 58.6837 162.308 58.2107C162.039 57.7378 161.595 57.389 161.071 57.2394H161.065Z" fill="black"></path>
                        <path d="M159.967 61.2015C160.148 61.2675 160.706 61.539 160.016 61.2075C160.179 61.2863 160.349 61.3548 160.513 61.4319C160.92 61.6246 161.32 61.8353 161.714 62.0537C162.67 62.5839 163.597 63.1672 164.514 63.7573C167.37 65.6065 170.143 67.5833 172.926 69.5439C182.283 76.1467 191.721 82.6484 201.028 89.3214C206.258 93.0723 211.431 96.9004 216.548 100.805C219.082 102.747 221.595 104.719 224.085 106.721C225.344 107.734 226.598 108.754 227.846 109.782C229.156 110.763 230.38 111.854 231.502 113.044C232.735 114.585 233.447 116.477 233.534 118.447C233.621 120.417 233.079 122.364 231.986 124.007C230.81 125.585 229.172 126.76 227.299 127.371C226.113 127.797 224.872 128.048 223.614 128.116C222.067 128.276 220.504 128.084 219.042 127.555C218.225 127.086 217.443 126.559 216.703 125.977C215.665 125.268 214.629 124.557 213.594 123.845C211.252 122.235 208.913 120.618 206.578 118.996C202.431 116.118 198.293 113.227 194.166 110.324C193.693 110.053 193.133 109.979 192.606 110.117C192.079 110.255 191.627 110.594 191.348 111.061C191.083 111.535 191.013 112.092 191.15 112.616C191.288 113.14 191.624 113.591 192.087 113.874C199.952 119.424 207.861 124.913 215.815 130.339C216.9 131.113 218.14 131.641 219.45 131.888C221.047 132.214 222.682 132.312 224.306 132.179C227.182 131.963 229.948 130.987 232.322 129.353C234.238 127.937 235.735 126.03 236.653 123.834C237.57 121.639 237.875 119.236 237.534 116.881C237.14 114.091 235.844 111.505 233.843 109.515C231.373 107.215 228.772 105.057 226.055 103.054C220.641 98.7313 215.136 94.5247 209.539 90.434C199.307 82.9156 188.819 75.7544 178.452 68.4218C175.12 66.0656 171.801 63.6879 168.417 61.4062C166.547 60.0636 164.573 58.8702 162.514 57.8372C162.041 57.617 161.56 57.4089 161.07 57.2316C160.543 57.0915 159.982 57.1635 159.508 57.432C159.034 57.7005 158.685 58.1441 158.536 58.6671C158.402 59.1925 158.477 59.749 158.745 60.2204C159.013 60.6918 159.454 61.0415 159.974 61.1964L159.967 61.2015Z" fill="black"></path>
                        <path d="M151.261 160.314C155.428 162.609 159.753 164.611 164.201 166.302C169.308 168.272 176.116 169.129 181.068 166.256C182.376 165.502 183.478 164.438 184.276 163.159C185.075 161.879 185.545 160.423 185.645 158.919C185.641 158.375 185.423 157.855 185.037 157.471C184.652 157.086 184.13 156.868 183.585 156.864C183.042 156.874 182.524 157.094 182.14 157.477C181.756 157.861 181.536 158.377 181.525 158.919C181.331 161.305 179.252 162.926 176.878 163.52C173.647 164.222 170.286 164.041 167.149 162.995C164.764 162.193 162.432 161.239 160.167 160.142C157.861 159.086 155.557 158 153.34 156.764C151.023 155.472 148.943 159.021 151.261 160.314Z" fill="black"></path>
                        <path d="M75.553 41.5893C81.5995 42.8286 87.7203 43.6737 93.8768 44.1194C97.0587 44.2815 100.248 44.0065 103.355 43.3023C107.168 42.4133 110.678 40.5153 114.463 39.5072C118.463 38.4044 122.531 37.5632 126.641 36.989C127.182 36.9723 127.696 36.7503 128.079 36.3684C128.462 35.9865 128.684 35.4733 128.701 34.9334C128.698 34.3892 128.48 33.8682 128.094 33.4834C127.709 33.0985 127.186 32.881 126.641 32.8778C122.914 33.3592 119.251 34.1985 115.587 35.0191C111.692 35.8944 108.113 37.4481 104.349 38.7217C98.6831 40.6395 92.6313 40.0707 86.8223 39.2622C83.4196 38.7883 80.0282 38.2415 76.6484 37.622C76.1222 37.4919 75.5661 37.5682 75.0946 37.8351C74.6231 38.102 74.2723 38.5392 74.1143 39.0566C73.9739 39.5822 74.046 40.1419 74.3151 40.6149C74.5842 41.088 75.0287 41.4367 75.553 41.5859V41.5893Z" fill="black"></path>
                        <path d="M234.986 112.159C238.618 109.933 242.393 107.955 246.045 105.763C249.689 103.478 253.454 101.391 257.323 99.5106C257.791 99.2323 258.131 98.7814 258.269 98.2552C258.408 97.729 258.333 97.1696 258.062 96.6978C257.777 96.2364 257.326 95.9022 256.8 95.7648C256.275 95.6275 255.717 95.6975 255.243 95.9604C251.374 97.8412 247.61 99.9284 243.966 102.213C240.314 104.405 236.539 106.384 232.906 108.609C230.65 109.991 232.717 113.549 234.986 112.159Z" fill="black"></path>
                        <path d="M177.013 132.587C184.158 137.353 191.435 141.934 198.731 146.47C200.419 147.613 202.272 148.494 204.225 149.081C206.364 149.646 208.591 149.808 210.789 149.559C215.564 149.003 220.8 146.377 222.711 141.717C224.784 136.664 222.571 130.394 218.425 127.071C218.031 126.701 217.51 126.494 216.968 126.494C216.427 126.494 215.906 126.701 215.512 127.071C215.129 127.458 214.914 127.981 214.914 128.525C214.914 129.069 215.129 129.591 215.512 129.978C218.482 132.356 220.16 136.415 218.992 139.956C218.477 141.503 216.947 142.905 215.308 143.873C213.681 144.826 211.855 145.391 209.973 145.523C208.08 145.677 206.176 145.441 204.378 144.83C202.899 144.216 201.491 143.443 200.18 142.524C196.487 140.22 192.809 137.893 189.145 135.543C185.782 133.393 182.413 131.249 179.093 129.033C176.883 127.559 174.817 131.118 177.013 132.583V132.587Z" fill="black"></path>
                        <path d="M163.66 147.434C169.555 151.313 175.421 155.342 181.536 158.867C184.039 160.164 186.811 160.86 189.631 160.899C193.357 161.149 197.054 160.093 200.082 157.914C203.409 155.384 205.304 150.305 203.945 146.255C203.109 143.757 199.128 144.828 199.972 147.348C200.324 148.662 200.29 150.049 199.873 151.344C199.456 152.639 198.674 153.787 197.62 154.65C195.127 156.364 192.093 157.113 189.086 156.756C187.848 156.657 186.625 156.423 185.438 156.059C185.211 155.989 184.984 155.916 184.76 155.837C184.657 155.801 183.988 155.531 184.408 155.713C184.046 155.553 183.696 155.368 183.359 155.159C180.574 153.465 177.812 151.733 175.072 149.964C171.948 147.956 168.836 145.929 165.736 143.883C163.516 142.422 161.45 145.981 163.657 147.433L163.66 147.434Z" fill="black"></path>
                        <path d="M59.552 113.466C64.7884 113.881 70.0591 114.248 75.013 116.14C75.54 116.28 76.1011 116.208 76.5754 115.94C77.0497 115.671 77.399 115.227 77.548 114.703C77.6809 114.178 77.6053 113.622 77.3371 113.151C77.0689 112.679 76.6287 112.33 76.1084 112.175C70.8308 110.16 65.1343 109.796 59.552 109.355C59.007 109.36 58.4856 109.578 58.1002 109.962C57.7148 110.347 57.4963 110.867 57.4918 111.411C57.5024 111.953 57.7228 112.469 58.1069 112.853C58.491 113.236 59.0089 113.456 59.552 113.466Z" fill="black"></path>
                        <path d="M33.9703 18.0277C23.7731 15.304 13.5716 12.5957 3.38561 9.82922C3.08 9.74969 2.76026 9.74056 2.45059 9.80252C2.14092 9.86448 1.84944 9.99591 1.59819 10.1869C1.34694 10.3778 1.1425 10.6233 1.00036 10.9047C0.858218 11.1861 0.782087 11.4961 0.777729 11.8112C0.789747 37.6939 0.455821 63.5766 0.201729 89.4585C0.129621 96.8193 0.0623785 104.18 0 111.542C0.00511165 111.99 0.155004 112.426 0.427452 112.783C0.699901 113.14 1.0804 113.399 1.51254 113.524C12.7244 116.318 23.8727 119.355 35.0665 122.217C37.1507 122.751 39.2367 123.284 41.3329 123.768C41.8591 123.897 42.4147 123.82 42.8858 123.553C43.3569 123.286 43.7079 122.85 43.867 122.333C47.626 112.47 49.6682 101.896 51.8348 91.6015C54.6857 78.0481 57.2566 64.4383 60.1323 50.8901C61.7093 43.459 63.3677 36.0426 65.2597 28.6835C65.3942 28.158 65.3194 27.6009 65.0509 27.1293C64.7825 26.6577 64.3413 26.3082 63.8201 26.1542C53.9551 23.1727 43.9262 20.6863 33.9703 18.0277C31.4062 17.3425 30.3125 21.3072 32.8749 21.9924C42.8326 24.6476 52.8598 27.1375 62.7248 30.119L61.2861 27.5906C57.8524 40.952 55.1363 54.496 52.4237 68.0176C49.8794 80.7119 47.4603 93.4447 44.3803 106.022C43.2006 111.181 41.7035 116.264 39.8977 121.24L42.4317 119.804C32.147 117.424 21.9713 114.537 11.7535 111.89C8.70953 111.102 5.66214 110.325 2.61131 109.559L4.12042 111.542C4.33674 85.0304 4.68182 58.5241 4.83634 32.0093C4.87583 25.2771 4.89643 18.5444 4.89815 11.8112L2.29027 13.7897C12.4763 16.5605 22.6777 19.2713 32.8775 21.9924C35.4399 22.6768 36.5335 18.712 33.9703 18.0277Z" fill="black"></path>
                        <path d="M62.0681 33.862C64.5386 34.5746 66.9957 35.3315 69.4393 36.1326C70.5802 36.5052 71.7193 36.8846 72.8481 37.2906C73.2962 37.4516 73.74 37.6195 74.183 37.7908C74.7083 37.9938 73.8241 37.6195 74.2619 37.8207C74.3984 37.885 74.5341 37.9458 74.6671 38.016L73.6464 36.2414C73.6044 36.8538 73.5374 37.4636 73.4636 38.0734C73.4413 38.2516 73.4181 38.4297 73.3958 38.6079C73.3245 39.1792 73.461 38.1565 73.3769 38.7492C73.3108 39.2134 73.2447 39.6768 73.1752 40.1402C72.849 42.3088 72.479 44.4707 72.0953 46.6299C71.0446 52.5398 69.8797 58.4214 68.6719 64.297C66.0417 77.0906 63.2544 89.8748 59.9306 102.509C59.2628 105.05 58.5692 107.587 57.7974 110.1C57.5056 111.049 57.2034 111.996 56.8729 112.932C56.7338 113.327 56.5905 113.721 56.4377 114.111C56.3707 114.282 56.2978 114.448 56.2325 114.618C56.4042 114.165 56.3527 114.34 56.2128 114.646L58.5391 113.704C54.2925 112.606 49.9128 112.045 45.704 110.802C43.1562 110.049 42.0677 114.015 44.6087 114.767C48.8149 116.01 53.1929 116.565 57.4438 117.668C57.8815 117.784 58.3452 117.755 58.7649 117.585C59.1846 117.415 59.5374 117.113 59.7701 116.725C61.2702 113.13 62.4725 109.419 63.3651 105.628C64.9601 99.7384 66.3816 93.8019 67.7543 87.8569C70.6986 75.095 73.4241 62.2757 75.7685 49.393C76.6758 45.0507 77.343 40.6619 77.7669 36.2465C77.7714 35.8866 77.6792 35.5321 77.4999 35.2198C77.3205 34.9076 77.0606 34.649 76.7471 34.471C74.8327 33.5744 72.8476 32.8364 70.8119 32.2646C68.2762 31.4326 65.7267 30.6455 63.1634 29.9032C60.6113 29.1675 59.5211 33.1331 62.0681 33.8671V33.862Z" fill="black"></path>
                        <path d="M284.125 12.2343C294.322 9.51059 304.524 6.80232 314.71 4.03495L312.102 2.05557C312.09 27.8912 312.423 53.7268 312.677 79.5607C312.749 86.9695 312.817 94.378 312.88 101.786L314.392 99.8042C303.18 102.598 292.032 105.635 280.838 108.498C278.754 109.03 276.668 109.563 274.572 110.049L277.107 111.484C273.348 101.623 271.305 91.0473 269.139 80.753C266.287 67.1996 263.716 53.5898 260.841 40.0424C259.264 32.6105 257.605 25.1941 255.714 17.835L254.275 20.3634C264.14 17.3819 274.169 14.8954 284.125 12.2368C286.684 11.5516 285.598 7.58602 283.03 8.27208C273.072 10.9315 263.045 13.4171 253.18 16.3995C252.659 16.553 252.217 16.9024 251.949 17.3739C251.681 17.8455 251.606 18.4026 251.741 18.9279C255.175 32.2893 257.891 45.8333 260.603 59.3549C263.148 72.0457 265.566 84.7811 268.65 97.3555C269.83 102.515 271.327 107.598 273.133 112.574C273.291 113.091 273.642 113.528 274.113 113.795C274.585 114.062 275.141 114.139 275.667 114.009C285.953 111.63 296.128 108.743 306.345 106.096C309.39 105.307 312.438 104.53 315.487 103.765C315.92 103.641 316.3 103.381 316.573 103.024C316.845 102.667 316.995 102.231 317 101.783C316.784 75.2114 316.437 48.64 316.282 22.0678C316.244 15.3968 316.224 8.72489 316.222 2.05214C316.218 1.73706 316.142 1.42709 316 1.1457C315.858 0.86431 315.653 0.618881 315.402 0.427997C315.151 0.237112 314.859 0.105775 314.549 0.0439327C314.24 -0.0179101 313.92 -0.00863807 313.614 0.0710467C303.428 2.83841 293.227 5.54583 283.03 8.26951C280.471 8.953 281.557 12.9203 284.125 12.2343Z" fill="black"></path>
                        <path d="M253.835 20.1399C251.237 20.8879 248.65 21.6693 246.073 22.4841C244.016 23.0366 242.008 23.7582 240.07 24.6417C239.756 24.8192 239.496 25.0775 239.316 25.3897C239.137 25.7019 239.045 26.0564 239.049 26.4164C239.407 30.2003 239.968 33.9624 240.73 37.6862C241.798 43.639 242.984 49.5711 244.215 55.4921C246.9 68.4065 249.744 81.3115 253.134 94.0614C254.284 98.3842 255.36 102.875 257.23 106.959C257.461 107.348 257.814 107.651 258.234 107.821C258.654 107.991 259.119 108.019 259.556 107.901C263.803 106.803 268.183 106.243 272.391 105C274.928 104.25 273.851 100.28 271.296 101.035C267.09 102.28 262.712 102.839 258.461 103.937L260.787 104.879C260.747 104.753 260.693 104.632 260.627 104.517C260.996 104.984 260.737 104.788 260.633 104.517C260.498 104.174 260.366 103.832 260.24 103.48C259.944 102.666 259.674 101.843 259.412 101.017C258.74 98.8964 258.136 96.7543 257.551 94.6087C255.968 88.7905 254.547 82.9286 253.179 77.0581C250.212 64.3373 247.462 51.5539 245.09 38.7089C244.615 36.1394 244.157 33.5587 243.752 30.9738C243.669 30.4462 243.59 29.918 243.512 29.3893C243.481 29.1692 243.451 28.9482 243.419 28.7281C243.362 28.3324 243.473 29.176 243.396 28.5465C243.31 27.833 243.224 27.1204 243.172 26.4052L242.151 28.1799C242.27 28.1059 242.397 28.0464 242.53 28.0026C241.996 28.1157 242.432 28.0454 242.58 27.9915C243.009 27.8364 243.432 27.6763 243.86 27.5272C245.047 27.1144 246.245 26.7298 247.443 26.3513C249.929 25.5656 252.425 24.813 254.932 24.0935C257.475 23.3612 256.391 19.393 253.837 20.1287L253.835 20.1399Z" fill="black"></path>
                        <path d="M93.8554 131.068C95.304 127.693 97.2066 124.53 99.5106 121.667C101.589 119.112 104.067 116.002 107.316 114.935C108.77 114.451 110.32 114.325 111.833 114.568C113.346 114.812 114.778 115.417 116.005 116.333C117.034 117.224 117.854 118.33 118.409 119.572C118.963 120.814 119.237 122.162 119.212 123.522C119.235 124.626 119.058 125.726 118.689 126.767C118.659 126.853 118.462 127.349 118.542 127.156C118.607 126.997 118.395 127.484 118.342 127.599C118.102 128.113 117.844 128.627 117.576 129.127C116.343 131.405 114.962 133.599 113.44 135.696C111.965 137.804 110.311 139.781 108.496 141.606C108.103 141.991 107.696 142.36 107.279 142.719C107.203 142.786 107.123 142.85 107.044 142.913C106.781 143.125 107.262 142.756 107.001 142.948C106.809 143.09 106.613 143.227 106.411 143.354C105.16 144.111 103.727 144.516 102.264 144.528C100.768 144.55 99.2908 144.19 97.9732 143.481C96.6557 142.773 95.5416 141.74 94.737 140.481C93.8094 139.016 93.2621 137.343 93.1445 135.613C93.0269 133.884 93.3426 132.152 94.0631 130.575C94.2046 130.05 94.1329 129.49 93.8634 129.016C93.5939 128.543 93.1485 128.195 92.6235 128.048C92.0972 127.916 91.5403 127.992 91.0684 128.259C90.5966 128.526 90.246 128.965 90.0895 129.483C89.3107 131.335 88.9339 133.331 88.9841 135.338C89.0343 137.346 89.5102 139.321 90.3805 141.132C91.9477 144.331 94.7036 146.795 98.0625 147.999C99.859 148.618 101.775 148.815 103.66 148.574C105.545 148.333 107.349 147.66 108.931 146.608C111.202 144.879 113.215 142.836 114.91 140.541C116.895 138.045 118.702 135.414 120.318 132.667C121.726 130.518 122.699 128.116 123.184 125.595C123.453 123.733 123.346 121.837 122.871 120.018C122.396 118.198 121.562 116.491 120.417 114.997C119.169 113.497 117.596 112.299 115.817 111.493C114.038 110.687 112.099 110.294 110.146 110.343C105.199 110.41 101.483 113.26 98.2994 116.779C94.9852 120.388 92.2824 124.513 90.2972 128.99C90.0389 129.464 89.9715 130.02 90.1088 130.542C90.2461 131.065 90.5778 131.515 91.0363 131.802C91.5087 132.074 92.0693 132.149 92.5969 132.012C93.1244 131.874 93.5765 131.535 93.8554 131.068Z" fill="black"></path>
                        <path d="M116.094 142.049C117.241 138.712 118.837 135.547 120.838 132.638C122.607 130.044 124.733 126.974 127.739 125.722C129.027 125.131 130.443 124.872 131.857 124.969C133.271 125.066 134.638 125.515 135.833 126.276C137.028 127.037 138.012 128.084 138.696 129.323C139.38 130.562 139.741 131.952 139.747 133.367C139.815 134.363 139.71 135.363 139.436 136.323C139.181 137.159 138.874 137.978 138.519 138.777C137.465 141.125 136.258 143.401 134.906 145.591C133.671 147.703 132.246 149.698 130.647 151.551C130.338 151.894 130.02 152.232 129.686 152.552C129.523 152.709 129.355 152.86 129.186 153.01C129.1 153.089 129.002 153.167 128.907 153.243C129.158 153.042 128.946 153.217 128.809 153.303C127.03 154.475 124.869 154.922 122.77 154.552C120.672 154.182 118.795 153.023 117.527 151.314C116.543 150.006 115.897 148.477 115.647 146.861C115.397 145.244 115.551 143.592 116.094 142.049C116.897 139.521 112.918 138.44 112.121 140.956C111.505 142.789 111.277 144.729 111.454 146.654C111.63 148.579 112.206 150.447 113.145 152.138C114.868 155.14 117.681 157.366 121.004 158.356C122.825 158.86 124.738 158.933 126.593 158.568C128.447 158.204 130.19 157.413 131.683 156.257C133.747 154.453 135.526 152.347 136.96 150.013C138.65 147.514 140.157 144.896 141.468 142.18C142.708 139.919 143.517 137.448 143.854 134.892C143.983 133.062 143.744 131.224 143.152 129.487C142.56 127.75 141.627 126.149 140.407 124.776C139.068 123.382 137.423 122.317 135.601 121.664C133.78 121.012 131.831 120.789 129.909 121.015C127.635 121.232 125.461 122.053 123.613 123.392C121.776 124.848 120.156 126.556 118.799 128.466C115.907 132.239 113.651 136.458 112.118 140.956C111.268 143.465 115.246 144.546 116.094 142.049Z" fill="black"></path>
                        <path d="M135.085 157.121C135.484 155.112 136.125 153.158 136.994 151.302C137.798 149.357 138.909 147.553 140.286 145.959C142.948 143.141 148.155 143.009 150.244 146.538C152.334 150.066 151.627 153.618 150.351 157.187C149.063 160.778 147.045 165.323 142.776 165.884C141.716 165.992 140.645 165.849 139.65 165.468C138.655 165.087 137.764 164.477 137.049 163.689C136.235 162.82 135.634 161.775 135.293 160.635C134.952 159.496 134.879 158.293 135.081 157.121C135.21 156.596 135.132 156.041 134.865 155.571C134.597 155.101 134.16 154.75 133.642 154.591C133.115 154.451 132.554 154.523 132.08 154.791C131.606 155.06 131.256 155.504 131.107 156.028C130.623 159.02 130.953 162.462 132.798 164.979C134.389 167.315 136.777 168.995 139.516 169.706C141.036 170.074 142.618 170.102 144.15 169.789C145.681 169.475 147.125 168.828 148.376 167.893C150.381 166.182 151.951 164.021 152.955 161.587C155.16 156.896 156.747 151.575 154.774 146.524C154.326 145.183 153.598 143.952 152.639 142.913C151.679 141.874 150.509 141.049 149.206 140.494C147.78 139.957 146.259 139.714 144.736 139.779C143.213 139.844 141.719 140.216 140.344 140.873C137.545 142.181 135.682 144.885 134.272 147.529C132.799 150.189 131.733 153.053 131.107 156.028C130.977 156.553 131.053 157.108 131.321 157.579C131.589 158.049 132.028 158.399 132.547 158.556C133.074 158.698 133.636 158.626 134.111 158.358C134.586 158.089 134.936 157.645 135.085 157.121Z" fill="black"></path>
                        <path d="M73.0069 125.263C72.4715 123.517 72.485 121.649 73.0456 119.911C73.5057 118.258 74.1297 117.029 75.6466 116.344C78.4253 115.089 82.3543 116.123 84.8016 117.99C87.7057 120.205 90.9685 123.487 90.2389 127.48C90.0967 128.28 89.8055 129.045 89.3804 129.737C89.1019 130.243 88.6851 130.658 88.1786 130.936C86.5918 131.635 84.8741 131.989 83.1397 131.975C81.1392 132.094 79.153 131.569 77.4741 130.477C75.4787 129.246 73.9182 127.424 73.0104 125.266C72.8513 124.749 72.5003 124.312 72.0292 124.045C71.5582 123.778 71.0026 123.701 70.4763 123.829C69.9514 123.977 69.5061 124.326 69.2368 124.799C68.9676 125.273 68.896 125.833 69.0376 126.358C71.1141 131.526 75.8371 135.604 81.5242 136.054C83.9863 136.256 86.4633 135.939 88.795 135.125C89.891 134.738 90.8897 134.118 91.7225 133.308C92.5552 132.499 93.202 131.518 93.6184 130.435C94.1947 129.006 94.4657 127.473 94.4143 125.933C94.3629 124.393 93.9901 122.881 93.3197 121.493C92.2062 119.386 90.6787 117.524 88.8285 116.019C85.1973 112.764 80.1189 110.755 75.2234 112.15C73.8711 112.543 72.6357 113.26 71.6242 114.238C70.6128 115.217 69.856 116.426 69.4196 117.763C68.3214 120.502 68.1867 123.533 69.0376 126.358C69.1948 126.876 69.5455 127.314 70.0172 127.581C70.4888 127.848 71.0453 127.925 71.5716 127.794C72.0958 127.644 72.54 127.295 72.8085 126.822C73.077 126.348 73.1482 125.788 73.0069 125.263Z" fill="black"></path>
                        <path d="M194.163 110.322L194.1 110.275L194.517 110.596C194.035 110.217 193.603 109.779 193.23 109.292L193.551 109.708C192.888 108.826 192.34 107.862 191.92 106.841L192.128 107.332C191.932 106.865 191.76 106.389 191.613 105.904C191.462 105.392 191.126 104.954 190.669 104.675C190.315 104.469 189.908 104.372 189.499 104.398C189.09 104.424 188.698 104.571 188.373 104.82C188.048 105.07 187.805 105.41 187.675 105.798C187.545 106.185 187.534 106.603 187.643 106.997C187.989 108.134 188.451 109.232 189.022 110.274C189.407 110.963 189.849 111.618 190.345 112.231C190.851 112.852 191.437 113.404 192.087 113.872C192.325 114.01 192.587 114.1 192.86 114.135C193.132 114.171 193.409 114.151 193.674 114.079C193.935 114.007 194.179 113.885 194.393 113.719C194.606 113.553 194.785 113.347 194.918 113.112C195.052 112.877 195.138 112.618 195.171 112.351C195.205 112.083 195.185 111.811 195.113 111.55L194.905 111.06C194.726 110.755 194.472 110.501 194.166 110.322H194.163Z" fill="black"></path>
                    </g>
                    <defs>
                        <clipPath id="clip0_60_181">
                            <rect width="317" height="170" fill="white"></rect>
                        </clipPath>
                    </defs>
                </svg>